<?xml version="1.0" encoding="UTF-8" standalone="no"?>
<svg
   xmlns:dc="http://purl.org/dc/elements/1.1/"
   xmlns:cc="http://creativecommons.org/ns#"
   xmlns:rdf="http://www.w3.org/1999/02/22-rdf-syntax-ns#"
   xmlns:svg="http://www.w3.org/2000/svg"
   xmlns="http://www.w3.org/2000/svg"
   xmlns:sodipodi="http://sodipodi.sourceforge.net/DTD/sodipodi-0.dtd"
   xmlns:inkscape="http://www.inkscape.org/namespaces/inkscape"
   version="1.1"
   id="svg10"
   xml:space="preserve"
   width="790.01794"
   height="596.32507"
   viewBox="0 0 790.01793 596.32508"
   sodipodi:docname="logo1.svg"
   inkscape:version="1.0 (4035a4fb49, 2020-05-01)"><metadata
     id="metadata16"><rdf:RDF><cc:Work
         rdf:about=""><dc:format>image/svg+xml</dc:format><dc:type
           rdf:resource="http://purl.org/dc/dcmitype/StillImage" /><dc:title></dc:title></cc:Work></rdf:RDF></metadata><defs
     id="defs14" /><sodipodi:namedview
     fit-margin-bottom="0"
     fit-margin-right="0"
     fit-margin-left="0"
     fit-margin-top="0"
     inkscape:document-rotation="0"
     pagecolor="#ffffff"
     bordercolor="#666666"
     borderopacity="1"
     objecttolerance="10"
     gridtolerance="10"
     guidetolerance="10"
     inkscape:pageopacity="0"
     inkscape:pageshadow="2"
     inkscape:window-width="1920"
     inkscape:window-height="1017"
     id="namedview12"
     showgrid="false"
     inkscape:zoom="0.60291313"
     inkscape:cx="524.87636"
     inkscape:cy="307.0443"
     inkscape:window-x="-8"
     inkscape:window-y="32"
     inkscape:window-maximized="1"
     inkscape:current-layer="g18" /><g
     id="g18"
     inkscape:groupmode="layer"
     inkscape:label="CS"
     transform="matrix(1.3333333,0,0,-1.3333333,-426.87183,1764.8675)"><g
       transform="translate(273.67127,-19.903365)"
       id="g98"><path
         id="path20"
         style="fill:#231f20;fill-opacity:1;fill-rule:evenodd;stroke:none"
         d="m 390.5311,1274.8975 0.3141,0.1993 c 7.0223,4.4679 15.1804,6.5715 23.4848,6.2951 1.0887,-0.036 2.1741,-0.1065 3.2553,-0.2106 1.5842,1.6121 3.1986,3.1975 4.858,4.7189 l 1.4425,1.3226 1.5931,1.1373 c 11.9421,8.5274 27.1689,8.2596 39.4322,0.5935 4.5694,-2.8564 8.6,-6.4496 12.0625,-10.5718 3.3565,-3.9963 6.1473,-8.4254 8.1825,-13.2366 3.3191,-7.8458 3.8526,-16.2638 1.7079,-23.9089 0.2001,-0.1683 0.3986,-0.339 0.5958,-0.5116 l 25.7854,-22.5675 -24.23,-24.2302 c -3.924,-3.924 -8.3092,-6.8752 -13.6511,-8.6525 -2.5109,-0.8354 -5.0955,-1.3598 -7.7017,-1.5758 -2.3119,-1.3365 -4.5901,-2.7337 -6.838,-4.176 0.2146,-2.5585 0.2304,-5.1483 0.0374,-7.7576 -0.6296,-8.4945 -3.2032,-16.6005 -7.4084,-23.9952 -3.6878,-6.486 -8.4228,-12.2639 -13.9178,-17.3005 -4.9654,-4.5515 -10.419,-8.5311 -16.3091,-11.8034 -5.4343,-3.0198 -11.3049,-5.099 -17.3959,-6.317 -5.6954,-1.1393 -11.5359,-1.55 -17.3325,-1.1455 -5.8612,0.4088 -11.6271,1.6189 -17.1261,3.6995 -7.7947,2.9486 -14.6143,7.7904 -19.7484,14.3799 -4.2789,-1.9761 -9.015,-3.1295 -13.9912,-3.3135 -6.45,-0.2383 -12.818,0.9806 -18.8,3.373 -1.707,0.6829 -3.3715,1.4542 -4.9867,2.3122 -0.3274,-0.1508 -0.6559,-0.2968 -0.9856,-0.4385 3.5173,-3.1238 6.6121,-6.6867 9.1497,-10.6934 0.2999,-0.4737 0.5885,-0.9516 0.8651,-1.4332 2.5521,-0.112 5.1208,-0.4694 7.6723,-1.0704 7.9418,-1.7305 14.9689,-5.7297 21.0311,-11.1186 l 0.3401,-0.3025 0.3317,-0.312 c 5.3229,-5.0097 9.6106,-10.7918 12.0552,-17.6143 3.6113,-2.4658 6.8612,-5.4442 9.612,-9.0198 l 0.6618,-0.8603 0.6021,-0.9037 c 2.0855,-3.128 3.7951,-6.4998 5.3005,-9.9402 l 0.1766,-0.4043 c 2.1521,1.624 4.4003,3.1181 6.7524,4.4476 l 0.7076,0.4002 0.7276,0.3637 c 5.6968,2.8491 11.8307,4.5947 18.2126,4.8609 5.7337,0.2389 11.4151,-0.6625 16.8319,-2.5376 4.1822,-1.4476 8.1601,-3.4135 11.9026,-5.7702 0.4941,-0.3107 0.9896,-0.6191 1.4871,-0.9247 1.8006,1.2994 3.6672,2.507 5.6044,3.6023 0.5369,1.3428 1.1576,2.6609 1.8615,3.947 2.4644,4.7908 5.9712,8.9688 10.309,12.2227 1.4593,1.0947 2.9795,2.1064 4.5434,3.045 l 2.359,1.4159 2.5653,0.9929 c 6.4724,2.5053 13.2154,4.2435 20.0628,5.3538 l 0.7934,0.1287 0.7994,0.089 c 0.7614,0.084 1.5228,0.1709 2.2842,0.2588 2.2104,2.7232 4.4957,5.3847 6.8641,7.9682 l 0.4708,0.5136 0.4924,0.4924 c 9.4906,9.4906 22.7389,12.6269 35.5612,9.606 7.9418,-1.7305 14.9689,-5.7297 21.0308,-11.1186 l 0.3401,-0.3025 0.332,-0.312 c 5.3229,-5.0097 9.6103,-10.7918 12.0551,-17.6143 3.6114,-2.4658 6.861,-5.4442 9.6118,-9.0198 l 0.6618,-0.8603 0.6024,-0.9037 c 2.0855,-3.128 3.7947,-6.4998 5.3002,-9.9402 l 1.0792,-2.4665 0.6528,-2.6118 c 0.2665,-1.067 0.5335,-2.1339 0.7999,-3.2009 0.5165,-2.0633 0.9372,-4.1508 1.2376,-6.2566 l 0.3209,-2.2516 v -2.2739 c 0,-16.5765 -10.4536,-31.0488 -26.9121,-34.7043 l -20.1906,-4.4847 -4.9221,6.5619 c -2.8905,-5.7107 -5.5327,-11.5464 -7.8642,-17.5082 -3.8933,-9.955 -7.118,-20.1651 -9.5833,-30.5668 -0.1579,-0.754 -0.3277,-1.5894 -0.4978,-2.4783 l 53.2378,-5.461 -56.0234,-48.5575 c -9.4893,-8.2247 -21.6306,-10.9916 -33.874,-9.3787 -11.3068,1.406 -21.028,7.0722 -29.0446,14.9641 -2.2811,2.1733 -4.3081,4.5133 -6.0965,6.9928 -0.9329,0.049 -1.8672,0.1287 -2.8021,0.2387 -5.5338,0.6514 -10.9097,2.1634 -16.0047,4.411 -2.7311,1.2047 -5.3832,2.5801 -7.9307,4.1295 -1.8544,-1.2067 -3.7452,-2.3565 -5.6736,-3.4413 l -0.3118,-0.1754 -0.3152,-0.1681 c -7.7785,-4.1497 -16.4917,-5.7858 -25.2476,-4.7557 -5.5338,0.6514 -10.9097,2.1634 -16.0047,4.411 -4.1842,1.8456 -8.1822,4.0909 -11.9047,6.7504 -1.7682,1.2631 -3.4934,2.5928 -5.1483,4.0042 -5.7109,-11.5512 -17.3046,-18.9777 -30.6144,-19.47 -0.1763,-0.006 -0.3524,-0.0117 -0.5281,-0.0162 l -9.8028,-8.4963 c -9.489,-8.2247 -21.6306,-10.9916 -33.8737,-9.3787 -11.3071,1.406 -21.028,7.0722 -29.0446,14.9641 -1.2762,1.2161 -2.473,2.4843 -3.5929,3.7996 -5.8343,-3.9912 -11.9441,-7.5674 -18.2679,-10.7294 -7.2253,-3.6125 -14.7263,-6.6479 -22.4399,-9.048 -8.0944,-2.518 -16.4311,-4.244 -24.9004,-4.7868 -6.8513,-0.4391 -13.8135,-0.1911 -20.5571,1.1579 -6.4551,1.2912 -12.695,3.4634 -18.3824,6.8097 l -0.616,0.3623 -0.5992,0.3892 c -7.4795,4.8614 -13.4819,11.4834 -17.3109,19.5658 -3.3052,6.9772 -4.8895,14.5316 -4.8895,22.2395 0,6.1722 0.9014,12.2947 2.5044,18.2495 1.4386,5.3441 3.3511,10.5505 5.6792,15.5707 3.4775,7.4979 7.6351,14.6574 12.3976,21.4115 3.1243,4.4308 6.4885,8.7179 10.1378,12.7389 -1.8637,3.308 -3.3531,6.8493 -4.4302,10.5913 -3.6766,12.7715 -2.1408,25.9529 2.7654,38.1561 3.9856,9.9136 9.6254,19.0301 16.333,27.3265 6.8496,8.4725 14.7503,15.9957 23.4417,22.557 9.0538,6.8352 19.0034,12.4109 29.7986,15.9741 0.6834,0.2256 1.3686,0.4413 2.056,0.648 -0.0649,0.092 -0.1299,0.1851 -0.1942,0.2781 -7.2108,-2.7281 -14.9754,-3.3679 -22.7242,-2.2612 -6.3698,0.9102 -12.5453,2.7609 -18.4119,5.3949 -0.8334,0.3741 -1.6583,0.7645 -2.4741,1.1707 -9.286,-7.8965 -19.5281,-14.614 -30.7423,-19.4704 -13.4353,-5.8184 -27.7531,-8.0316 -42.2867,-6.3666 -11.9364,1.1914 -23.0383,5.6291 -32.0434,13.6517 -7.7584,6.912 -13.4348,15.5557 -17.0889,25.2575 -3.3083,8.7837 -4.955,18.0715 -5.4227,27.4261 -0.4544,9.0799 0.125,18.189 1.359,27.1885 1.5559,11.3496 4.1479,22.5326 7.6328,33.4431 3.5073,10.9806 7.7596,21.7117 12.7304,32.1123 5.0221,10.508 10.8969,20.5954 17.6757,30.0696 6.7144,9.3844 14.436,18.0678 23.3274,25.4461 9.0066,7.4733 19.1359,13.3642 30.32,16.9072 13.1595,4.1692 26.7973,4.0468 39.899,-0.2644 13.4839,-4.3169 23.6878,-14.1285 28.967,-27.2299 3.5898,-8.909 5.0278,-18.438 5.0278,-28.0077 0,-3.0833 -0.1281,-6.1665 -0.3679,-9.2421 3.5937,-0.385 7.1592,-1.0919 10.6645,-2.0934 4.78,-1.3655 9.3067,-3.3137 13.5374,-5.7801 0.2659,0.5337 0.5326,1.0669 0.8011,1.5996 4.3069,8.5458 9.0408,16.9741 14.4153,24.8986 4.625,6.8193 9.8387,13.4844 15.9057,19.0846 l 2.2074,2.0372 2.5469,1.5917 c 6.0265,3.7664 12.8653,5.8748 19.9962,5.8748 4.951,0 9.7741,-0.9587 14.4374,-2.5801 4.0892,-1.4221 7.8851,-3.4481 11.4239,-5.8915 l 0.699,-0.4142 c 10.9704,-6.5007 19.2512,-16.2555 21.1621,-29.1651 0.1244,-0.8039 0.2191,-1.6067 0.2834,-2.4069 3.1723,1.8482 6.6461,3.2196 10.3363,4.0397 6.6356,1.4748 13.4716,1.1625 19.9743,-0.7881 l 0.6661,-0.1998 0.6563,-0.2282 c 6.5877,-2.2921 12.6348,-5.6514 17.6099,-10.4411" /><path
         id="path22"
         style="fill:#ffffff;fill-opacity:1;fill-rule:nonzero;stroke:#ffffff;stroke-width:0.216;stroke-linecap:butt;stroke-linejoin:miter;stroke-miterlimit:22.9256;stroke-dasharray:none;stroke-opacity:1"
         d="m 413.4022,1015.5767 c -1.3354,-0.9348 -3.0379,-2.7039 -5.1078,-5.3081 -2.0695,-2.6039 -4.0731,-5.3748 -6.0091,-8.3123 -1.9361,-2.9379 -3.6057,-5.6756 -5.0077,-8.2129 -1.402,-2.537 -2.103,-4.1394 -2.103,-4.807 2.4037,-0.4005 4.6403,0.334 6.7101,2.2037 2.0699,1.8692 3.9393,4.2392 5.6087,7.1107 1.669,2.8706 3.0041,5.9088 4.0056,9.1137 1.0018,3.2045 1.6359,5.942 1.9032,8.2122 z m 55.4839,0 c -1.3354,-0.9348 -3.0382,-2.7039 -5.108,-5.3081 -2.0696,-2.6039 -4.0731,-5.3748 -6.0089,-8.3123 -1.9363,-2.9379 -3.606,-5.6756 -5.0077,-8.2129 -1.4023,-2.537 -2.103,-4.1394 -2.103,-4.807 2.4035,-0.4005 4.64,0.334 6.7099,2.2037 2.0698,1.8692 3.9393,4.2392 5.6086,7.1107 1.669,2.8706 3.0044,5.9088 4.0059,9.1137 1.0015,3.2045 1.6359,5.942 1.9032,8.2122 z m 0.6568,-42.1322 c 0.9595,3.5136 2.0758,7.208 3.3488,11.0852 1.0395,3.1666 2.1255,6.3074 3.2571,9.4235 -1.6302,-2.7011 -3.4838,-5.2747 -5.5608,-7.721 -3.0038,-3.5382 -6.3757,-5.9088 -10.1146,-7.1107 -2.6708,-0.6676 -5.0079,-0.868 -7.0109,-0.6007 -2.0032,0.267 -4.2063,0.9346 -6.6101,2.003 -0.6678,-1.3354 -1.4023,-3.3049 -2.2034,-5.9088 -0.801,-2.6042 -1.402,-5.2416 -1.8028,-7.9118 -0.4005,-2.6708 -0.5338,-5.0412 -0.4005,-7.1107 0.1338,-2.0705 0.9348,-3.2386 2.404,-3.5056 2.1365,-0.4006 5.1741,0.7344 9.1134,3.4052 3.9396,2.6705 8.0456,6.1759 12.3188,10.5157 1.0914,1.1084 2.1784,2.2544 3.261,3.4367 z m 60.2345,80.39 c 5.6086,-1.0684 9.9488,-2.0698 13.0198,-3.0044 3.3387,-1.2019 5.6753,-2.6711 7.0107,-4.4068 0.801,-1.2019 1.669,-2.8709 2.6039,-5.0076 0.267,-1.0681 0.534,-2.1365 0.8013,-3.2046 0.2668,-1.0687 0.4672,-2.0699 0.6007,-3.0045 0,-2.0032 -0.6007,-3.1385 -1.8026,-3.4052 -2.0035,2.6708 -6.0091,4.807 -12.0183,6.4097 -9.0802,2.0029 -15.9573,2.8709 -20.6311,2.6036 -1.0681,-1.6024 -2.1368,-3.2046 -3.2049,-4.8073 -1.0683,-1.6021 -2.1364,-3.2043 -3.2048,-4.8072 -6.5432,-11.2167 -12.1516,-22.7007 -16.8253,-34.452 -4.6741,-12.1516 -8.3461,-23.9026 -11.0166,-35.2531 -2.4038,-11.3505 -3.1382,-20.4976 -2.2034,-27.4414 0.9349,-7.3445 4.006,-11.2838 9.2138,-11.8179 -2.003,-1.7359 -4.9405,-2.3369 -8.8132,-1.8025 -3.4719,0.4005 -7.0773,2.4701 -10.8162,6.209 -3.7392,3.4721 -6.0761,8.6799 -7.0109,15.6237 -0.3614,3.524 -0.3101,7.4608 0.1539,11.81 -0.3835,-0.3342 -0.7685,-0.6653 -1.1551,-0.9939 -4.4068,-3.7389 -8.7463,-6.8102 -13.0198,-9.2137 -2.0027,-1.0684 -4.1392,-1.4689 -6.4097,-1.2016 -2.2697,0.2667 -4.54,0.9011 -6.8103,1.9026 -2.2699,1.0015 -4.3395,2.1699 -6.2093,3.5053 -1.8694,1.3354 -3.4052,2.6039 -4.6071,3.8058 -2.537,2.6706 -3.9393,6.2428 -4.206,10.7161 -0.0922,1.5435 -0.0927,3.1309 -0.002,4.7614 -0.5256,-0.6242 -1.0588,-1.2436 -1.6002,-1.857 -4.0059,-4.5402 -8.2122,-8.6797 -12.619,-12.4189 -4.4067,-3.7389 -8.7463,-6.8102 -13.0198,-9.2137 -2.0029,-1.0684 -4.1394,-1.4689 -6.4097,-1.2016 -2.2697,0.2667 -4.5399,0.9011 -6.8102,1.9026 -2.27,1.0015 -4.3399,2.1699 -6.2093,3.5053 -1.8695,1.3354 -3.4053,2.6039 -4.6072,3.8058 -2.537,2.6706 -3.9393,6.2428 -4.206,10.7161 -0.2472,4.1431 0.1636,8.6015 1.2334,13.3745 -1.1047,0.1009 -2.2508,0.2829 -3.4371,0.5465 -2.4035,0.5343 -4.6403,1.3019 -6.7101,2.3037 -2.0696,1.0012 -3.2383,2.1702 -3.5051,3.505 -0.6678,2.2703 -0.9351,4.7072 -0.8013,7.3111 0.1335,2.6042 0.1335,5.2416 0,7.9121 -7.0773,-7.7448 -13.1533,-16.1243 -18.2276,-25.1379 -5.0743,-9.0139 -9.0803,-19.5296 -12.0181,-31.5479 -0.4005,-1.4684 -1.5024,-2.2366 -3.3049,-2.3034 -1.8028,-0.0667 -3.7055,0.3007 -5.709,1.1018 -2.0027,0.8013 -3.7389,1.8694 -5.2075,3.2048 -1.4689,1.3354 -2.0699,2.7374 -1.8026,4.2064 1.2016,7.211 2.9041,14.7554 5.1075,22.6338 2.2034,7.8791 4.7738,15.6571 7.7114,23.3356 2.9378,7.6782 6.076,14.989 9.4144,21.9331 3.3384,6.9437 6.6098,13.1533 9.815,18.6281 0.6675,1.2019 1.6021,1.9364 2.8043,2.2031 0.6548,0.1457 1.3303,0.1922 2.0253,0.1392 -1.8005,0.8464 -3.9447,1.6013 -6.4318,2.2649 -9.0805,2.0029 -15.9576,2.8709 -20.6314,2.6036 -1.0681,-1.6024 -2.1365,-3.2046 -3.2046,-4.8073 -1.0686,-1.6021 -2.1367,-3.2043 -3.2051,-4.8072 -6.5429,-11.2167 -12.1518,-22.7007 -16.8256,-34.452 -4.6738,-12.1516 -8.3458,-23.9026 -11.016,-35.2531 -2.4041,-11.3505 -3.1385,-20.4976 -2.2036,-27.4414 0.9348,-7.3445 4.0059,-11.2838 9.214,-11.8179 -2.003,-1.7359 -4.9408,-2.3369 -8.8135,-1.8025 -3.4719,0.4005 -7.077,2.4701 -10.8162,6.209 -3.7391,3.4721 -6.076,8.6799 -7.0106,15.6237 -0.5346,5.2078 -0.167,11.3173 1.1015,18.3277 1.2688,7.0103 3.3718,14.9896 6.31,23.936 2.9375,8.947 6.2424,17.6933 9.9147,26.2397 3.672,8.5465 7.6447,16.9592 11.918,25.238 0.267,0.6676 0.6009,1.302 1.0012,1.9029 0.4005,0.601 0.7347,1.2351 1.0017,1.9029 -0.6675,0 -1.5023,-0.067 -2.5035,-0.2004 -1.0018,-0.1332 -2.1033,-0.3336 -3.3052,-0.6006 -1.2016,-0.2673 -2.3369,-0.5344 -3.405,-0.8011 -1.0687,-0.2673 -2.1368,-0.601 -3.2051,-1.0018 -1.0684,-0.267 -1.9361,-0.6341 -2.6037,-1.1015 -0.6678,-0.4675 -1.1355,-0.8345 -1.4023,-1.1018 -0.8013,-1.3354 -1.5355,-1.736 -2.2033,-1.2017 -0.9349,0.6679 -1.736,1.5353 -2.4035,2.604 -0.267,0.6672 -0.6012,1.3019 -1.0018,1.9026 -0.4005,0.6012 -0.7342,1.235 -1.0015,1.9031 -0.2673,0.6676 -0.4671,1.2686 -0.6009,1.8026 -0.1335,0.534 -0.2667,0.9346 -0.4005,1.2019 -0.5344,1.4689 -0.4006,2.8043 0.4005,4.0059 0.267,0.6679 0.6678,1.2019 1.2019,1.6024 0.534,0.4006 1.1353,0.8014 1.8028,1.2022 4.1395,1.6021 8.6797,2.804 13.6208,3.6051 2.4035,0.267 4.6732,0.5343 6.8099,0.8014 2.1365,0.2667 4.14,0.534 6.0092,0.801 0.4005,0 0.868,0 1.4023,0 0.534,0 1.135,0.067 1.8028,0.2004 4.4065,6.2762 8.8132,11.818 13.2197,16.625 1.3354,1.3354 3.2714,1.6693 5.8087,1.0017 2.1365,-0.4005 4.4068,-1.669 6.8103,-3.8058 2.2702,-2.1367 3.6056,-4.0062 4.0062,-5.6086 0.4005,-1.8692 0.0666,-3.1377 -1.0015,-3.8058 -1.0687,-1.3354 -2.0032,-2.5038 -2.804,-3.505 -0.8014,-1.0018 -1.4692,-1.836 -2.0036,-2.5039 5.6087,-1.0684 9.9485,-2.0698 13.0196,-3.0044 3.3389,-1.2019 5.6755,-2.6711 7.0109,-4.4068 0.8011,-1.2019 1.6693,-2.8709 2.6042,-5.0076 0.2667,-1.0681 0.5335,-2.1365 0.8008,-3.2046 0.2673,-1.0687 0.4677,-2.0699 0.6009,-3.0045 0,-0.943 -0.1338,-1.6942 -0.4,-2.2524 0.5066,-0.3985 0.9406,-0.8166 1.3014,-1.2532 1.2685,-1.5355 1.4352,-3.3049 0.5006,-5.3078 -1.7356,-3.7389 -3.6056,-7.6451 -5.6083,-11.7179 -2.0035,-4.0731 -4.0731,-8.7131 -6.2096,-13.9209 2.0033,2.804 3.8055,5.4082 5.4085,7.8117 1.4684,2.0029 2.7706,3.9396 3.9056,5.8087 1.1353,1.8698 1.8363,3.0045 2.103,3.405 1.2022,1.8697 2.2034,2.9047 3.0047,3.1051 0.8011,0.1998 2.1365,-0.1004 4.0062,-0.9014 3.7389,-1.4692 6.543,-2.5373 8.4127,-3.2049 1.8695,-0.6678 3.138,-1.5358 3.8058,-2.6039 0.6676,-1.0687 0.868,-2.6042 0.6007,-4.6071 -0.2671,-2.0033 -0.6007,-5.0743 -1.0012,-9.2138 -0.688,-5.1576 -0.8836,-10.1182 -0.5877,-14.8824 0.9202,2.5784 1.9843,5.2021 3.1916,7.8715 2.5373,5.6089 5.3747,10.8831 8.513,15.8241 3.1376,4.9408 6.4426,9.2809 9.9147,13.0198 3.4722,3.7389 6.7436,6.4761 9.815,8.2123 1.8694,0.9346 3.6051,1.4357 5.2078,1.5023 1.6027,0.067 3.2717,-0.2004 5.0077,-0.801 1.7356,-0.601 3.505,-1.4692 5.3078,-2.6042 1.8029,-1.1353 3.8393,-2.3703 6.109,-3.7055 3.2051,-2.0032 4.6738,-4.5405 4.407,-7.6113 0,-1.4692 -0.5678,-4.0734 -1.7028,-7.8123 -1.1349,-3.7388 -2.7377,-7.6447 -4.8072,-11.7172 -2.0699,-4.0729 -4.6069,-7.8787 -7.6116,-11.4177 -3.0042,-3.5382 -6.376,-5.9088 -10.1149,-7.1107 -2.6708,-0.6676 -5.0077,-0.868 -7.0109,-0.6007 -2.003,0.267 -4.2063,0.9346 -6.6098,2.003 -0.6679,-1.3354 -1.4023,-3.3049 -2.2034,-5.9088 -0.8011,-2.6042 -1.402,-5.2416 -1.8028,-7.9118 -0.4006,-2.6708 -0.5341,-5.0412 -0.4006,-7.1107 0.1335,-2.0705 0.9349,-3.2386 2.4041,-3.5056 2.1362,-0.4006 5.1741,0.7344 9.1134,3.4052 3.9393,2.6705 8.0455,6.1759 12.3185,10.5157 4.2735,4.3399 8.4795,9.2475 12.6193,14.7226 4.1394,5.4748 7.4778,10.8162 10.015,16.024 0.2648,0.2647 0.5707,0.4476 0.9176,0.5482 1.4514,2.7091 2.9812,5.3308 4.5907,7.8644 3.138,4.9408 6.4429,9.2809 9.9148,13.0198 3.4721,3.7389 6.7436,6.4761 9.8149,8.2123 1.8695,0.9346 3.6054,1.4357 5.2078,1.5023 1.6028,0.067 3.2718,-0.2004 5.008,-0.801 1.7354,-0.601 3.505,-1.4692 5.3076,-2.6042 1.8031,-1.1353 3.8392,-2.3703 6.1089,-3.7055 3.2055,-2.0032 4.6738,-4.5405 4.4071,-7.6113 0,-0.7203 -0.1361,-1.7129 -0.4088,-2.9778 3.2494,7.369 6.7238,14.6376 10.4239,21.8058 0.267,0.6676 0.6006,1.302 1.0012,1.9029 0.4008,0.601 0.7347,1.2351 1.0017,1.9029 -0.6675,0 -1.5026,-0.067 -2.5038,-0.2004 -1.0018,-0.1332 -2.1033,-0.3336 -3.3049,-0.6006 -1.2019,-0.2673 -2.3372,-0.5344 -3.4053,-0.8011 -1.0684,-0.2673 -2.1365,-0.601 -3.2048,-1.0018 -1.0681,-0.267 -1.9364,-0.6341 -2.604,-1.1015 -0.6678,-0.4675 -1.1349,-0.8345 -1.4023,-1.1018 -0.8007,-1.3354 -1.5352,-1.736 -2.203,-1.2017 -0.9349,0.6679 -1.7363,1.5353 -2.4035,2.604 -0.2671,0.6672 -0.6013,1.3019 -1.0018,1.9026 -0.4005,0.6012 -0.7345,1.235 -1.0012,1.9031 -0.2673,0.6676 -0.4677,1.2686 -0.6012,1.8026 -0.1338,0.534 -0.267,0.9346 -0.4006,1.2019 -0.5343,1.4689 -0.4005,2.8043 0.4006,4.0059 0.267,0.6679 0.6678,1.2019 1.2019,1.6024 0.534,0.4006 1.1352,0.8014 1.8028,1.2022 4.1394,1.6021 8.6794,2.804 13.6205,3.6051 2.4035,0.267 4.6735,0.5343 6.8099,0.8014 2.1368,0.2667 4.14,0.534 6.0095,0.801 0.4002,0 0.8679,0 1.402,0 0.5343,0 1.135,0.067 1.8028,0.2004 4.4065,6.2762 8.8135,11.818 13.22,16.625 1.3354,1.3354 3.2714,1.6693 5.8084,1.0017 2.1368,-0.4005 4.4071,-1.669 6.8106,-3.8058 2.2702,-2.1367 3.6056,-4.0062 4.0062,-5.6086 0.4008,-1.8692 0.0666,-3.1377 -1.0018,-3.8058 -1.0684,-1.3354 -2.0027,-2.5038 -2.804,-3.505 -0.8014,-1.0018 -1.469,-1.836 -2.0033,-2.5039 z M 180.6506,979.9228 c -2.27,-1.8694 -4.5403,-4.4064 -6.81,-7.6116 -2.2706,-3.2045 -4.1732,-6.6098 -5.709,-10.2152 -1.5355,-3.6056 -2.5702,-7.1773 -3.1045,-10.7163 -0.5343,-3.5388 -0.3007,-6.6099 0.701,-9.2138 1.0018,-2.6042 2.9376,-4.473 5.8088,-5.6086 2.8706,-1.135 7.0441,-1.1016 12.5189,0.1003 5.3416,1.3354 10.8831,3.4719 16.6249,6.4097 5.7419,2.9379 11.0169,6.3094 15.8239,10.1152 4.8072,3.8061 8.7468,7.7783 11.8179,11.918 3.0716,4.1397 4.6069,8.0118 4.6069,11.6175 0,3.8727 -1.3014,7.1441 -3.9056,9.8147 -2.6042,2.671 -5.8754,5.0411 -9.815,7.111 -3.9396,2.0698 -8.2791,3.9393 -13.0195,5.6083 -4.7407,1.669 -9.2809,3.4722 -13.621,5.4079 -4.3393,1.9367 -8.1789,4.1732 -11.5169,6.7102 -3.3384,2.5373 -5.5418,5.6755 -6.6104,9.4144 -1.4687,5.0743 -0.9012,10.8496 1.7027,17.3262 2.604,6.4766 6.4432,12.8526 11.5175,19.1288 5.0743,6.2765 11.0166,11.9849 17.8271,17.1261 6.8099,5.1412 13.6536,8.8466 20.5308,11.1166 6.8768,2.27 13.3534,2.7377 19.4295,1.4023 6.0755,-1.3354 11.0497,-5.3413 14.9224,-12.0183 0.9346,2.0032 2.1699,4.2729 3.7054,6.8102 1.5359,2.5373 3.0379,5.0077 4.5071,7.4112 1.4687,2.4035 2.9044,4.5402 4.3061,6.41 1.4023,1.8691 2.5039,3.071 3.3055,3.6054 1.2019,0.801 3.1377,0.7676 5.8085,-0.1004 2.6705,-0.868 5.1744,-2.1365 7.5115,-3.8058 2.3366,-1.6693 4.1395,-3.505 5.408,-5.5083 1.2685,-2.0029 1.1015,-3.6054 -0.5009,-4.807 -2.537,-2.2702 -5.4082,-5.5085 -8.6125,-9.7149 -3.2054,-4.2063 -6.3766,-8.88 -9.5148,-14.0212 -3.138,-5.1412 -6.1089,-10.4823 -8.9133,-16.0243 -2.8043,-5.5417 -5.1077,-10.7493 -6.9103,-15.6234 -1.8031,-4.8739 -2.9381,-9.1471 -3.4052,-12.8194 -0.4675,-3.672 0.0334,-6.2425 1.5018,-7.7117 -1.3349,-1.2016 -3.0711,-1.6356 -5.2073,-1.3019 -2.1367,0.3336 -4.2066,1.2685 -6.2095,2.8046 -2.0033,1.5352 -3.7058,3.5382 -5.1078,6.0086 -1.4023,2.4704 -1.9029,5.2415 -1.5024,8.3128 0.4006,3.7389 1.3689,7.8787 2.9044,12.4186 1.5358,4.54 3.0379,9.1137 4.5071,13.7206 1.4686,4.6071 2.5705,9.0138 3.3049,13.2202 0.7345,4.2063 0.5006,7.9118 -0.701,11.1169 -0.6678,1.7356 -2.4372,2.2365 -5.3081,1.5021 -2.871,-0.7342 -6.3097,-2.3366 -10.3156,-4.8076 -4.0062,-2.4704 -8.2457,-5.5746 -12.7191,-9.3138 -4.4733,-3.7389 -8.6468,-7.7116 -12.5189,-11.9177 -3.8727,-4.2066 -7.1776,-8.4461 -9.9153,-12.7196 -2.7371,-4.273 -4.3064,-8.079 -4.7069,-11.4171 -0.4008,-3.3384 0.8345,-6.1092 3.7057,-8.3123 2.8709,-2.2037 6.6098,-4.3401 11.217,-6.41 4.6069,-2.0696 9.6477,-4.2063 15.1225,-6.4097 5.4752,-2.2031 10.516,-4.8739 15.1229,-8.0119 4.6071,-3.1382 8.3795,-7.0106 11.317,-11.6175 2.9378,-4.6071 4.2066,-10.3155 3.8058,-17.126 -0.1338,-3.3381 -1.3688,-6.9438 -3.7054,-10.8162 -2.3369,-3.8727 -5.4414,-7.7451 -9.3141,-11.6178 -3.8727,-3.8724 -8.3458,-7.6113 -13.4204,-11.2167 -5.0743,-3.6057 -10.4822,-6.8437 -16.2246,-9.7149 -5.7419,-2.8706 -11.6175,-5.2412 -17.6264,-7.1107 -6.0089,-1.8694 -11.8179,-3.0044 -17.4263,-3.405 -4.8073,-0.267 -8.8801,-0.0669 -12.2184,0.6007 -3.3384,0.6681 -6.1427,1.6693 -8.4127,3.0047 -2.6708,1.736 -4.6069,3.8724 -5.8088,6.4097 -1.2021,2.537 -1.8028,5.3748 -1.8028,8.513 0,3.1377 0.4674,6.4429 1.4023,9.9145 0.9346,3.4721 2.2031,6.9443 3.8058,10.4162 2.6705,5.7418 5.8419,11.2167 9.5142,16.4248 3.6723,5.2078 7.3777,9.6145 11.1169,13.2199 0.6676,0.534 1.4686,0.7676 2.4035,0.7007 0.9349,-0.0663 1.7359,-0.3336 2.4035,-0.8011 0.6676,-0.4674 1.1015,-1.0346 1.302,-1.7027 0.2007,-0.6673 -0.0332,-1.2016 -0.701,-1.6022 z" /><path
         id="path24"
         style="fill:#231f20;fill-opacity:1;fill-rule:evenodd;stroke:#231f20;stroke-width:0.216;stroke-linecap:butt;stroke-linejoin:miter;stroke-miterlimit:22.9256;stroke-dasharray:none;stroke-opacity:1"
         d="m 528.768,1014.8871 0.1794,0.1153 c 0.1803,0.116 0.3589,0.2242 0.5389,0.3257 1.4374,1.0449 3.2199,2.0909 4.4759,2.6782 0.1077,0.067 0.2154,0.1341 0.3257,0.1987 l 0.2891,0.1704 1.2739,0.6089 c 0.3413,0.5521 0.737,1.0683 1.1843,1.5377 0.6418,0.8346 1.3919,1.5849 2.147,2.1382 0.2444,0.1792 0.4932,0.3427 0.7492,0.4938 2.0636,1.5191 4.9842,2.5997 7.4384,2.757 2.7595,0.1769 4.3713,0 6.9435,-1.0857 0.7287,-0.3064 1.3994,-0.6749 2.0191,-1.1001 1.0944,0.01 2.1903,-0.016 3.3009,-0.067 l 0.1247,-0.01 2.869,-0.2245 c 1.1633,-0.049 2.2796,-0.1687 3.435,-0.3277 l 4.2574,-0.5862 0.1295,-0.022 c 0.4714,-0.081 0.9043,-0.1939 1.34,-0.3331 2.3601,-0.3458 5.1497,-1.264 7.2926,-2.0557 l 0.205,-0.076 4.5264,-1.9669 c 0.8435,-0.3566 1.4431,-0.7461 2.2005,-1.215 0.7279,-0.3396 1.3017,-0.7273 1.921,-1.1976 1.4828,-0.9425 2.9526,-2.1305 4.2744,-3.2729 l 0.2985,-0.2582 c 6.389,-6.766 7.4917,-9.2251 11.0661,-16.4951 l 3.9158,-12.4623 c 0.0309,-0.0884 0.061,-0.1771 0.0905,-0.2664 l 2.1169,-3.094 5.8708,-4.2767 c 3.331,-2.0086 6.3669,-4.1383 9.6959,-6.2053 l 0.2517,-0.1564 c 1.6271,-0.8541 3.3061,-1.8899 4.8246,-2.8982 l 0.4229,-0.2806 3.9436,-3.4333 0.2307,-0.2384 c 1.8128,-1.8723 3.3384,-4.8255 3.7126,-7.4013 0.7721,-5.3135 -0.3181,-7.2984 -3.4152,-10.6568 -1.6297,-1.7686 -4.2015,-3.1006 -6.5404,-3.6658 -1.0627,-0.2568 -1.9684,-0.2897 -3.0334,-0.3059 -1.3555,-0.0207 -2.6529,0.0238 -3.994,0.2396 -1.6585,0.267 -3.5254,0.9102 -5.1604,1.6446 l -3.1893,-1.4148 c -7.7355,-5.3895 -12.9254,-8.2629 -20.9171,-11.6481 -0.383,-0.1621 -0.7671,-0.3279 -1.1413,-0.5091 -1.4028,-0.6797 -2.8502,-1.2118 -4.3438,-1.6551 -4.4722,-1.3283 -8.0413,-1.8227 -12.6689,-2.2272 -3.3959,-0.2965 -7.3819,-0.0964 -10.6869,0.7659 -0.4804,0.0947 -0.9337,0.195 -1.4054,0.3484 -1.4799,0.4813 -3.1569,1.0565 -4.5096,1.8076 -0.8408,0.4666 -1.635,0.8589 -2.4664,1.3785 l -0.2588,0.1616 -6.3443,4.6911 c -0.3571,0.2367 -0.6945,0.475 -1.0309,0.7475 l -1.4777,1.1573 c -3.725,2.4421 -9.2237,4.3172 -10.9026,7.816 -0.2676,0.2092 -0.5355,0.4184 -0.8068,0.6165 l -0.5649,0.2299 -5.5894,-0.7163 -0.0544,-0.006 c -2.63,-0.2993 -5.2398,-0.1086 -7.8327,0.3849 -0.5834,0.1112 -1.1032,0.2696 -1.6523,0.4624 -1.9653,0.5454 -3.2085,1.1744 -4.8084,2.4457 -3.7179,2.196 -5.4964,7.6224 -6.425,11.6742 -0.1012,0.4419 -0.1778,0.8703 -0.2529,1.3127 -0.009,0.0304 -0.0187,0.061 -0.028,0.0907 l -0.1015,0.3257 -0.9578,4.4011 -0.0312,0.1851 c -0.1236,0.7379 -0.1333,1.4672 -0.2435,2.1629 -0.148,0.8725 -0.2809,1.6313 -0.33,2.4074 -0.155,0.9224 -0.1825,1.8709 -0.121,2.8233 -0.0525,0.8742 -0.0136,1.7453 0.008,2.6635 0.01,0.4079 0.0148,0.8155 0.021,1.2234 0.009,0.5916 0.0612,1.1605 0.1644,1.7121 0.0227,0.3509 0.0658,0.7039 0.1301,1.0579 l 0.3232,2.2947 0.011,0.0694 c 0.2033,1.2764 0.54,2.4639 0.8623,3.7094 0.1154,0.4459 0.258,0.8518 0.4014,1.2816 l 0.0615,0.2625 1.2189,3.5693 2.0843,4.3458 0.1304,0.2299 c 0.6188,1.0936 1.0333,1.9945 1.7796,3.0064 7.1589,10.791 6.1058,9.7765 16.2088,17.0777 z" /><path
         id="path26"
         style="fill:#ec008c;fill-opacity:1;fill-rule:evenodd;stroke:#ec008c;stroke-width:0.216;stroke-linecap:butt;stroke-linejoin:miter;stroke-miterlimit:22.9256;stroke-dasharray:none;stroke-opacity:1"
         d="m 622.1546,952.7088 0.003,-0.1485 c 0.4201,-0.0686 1.0998,-0.3543 1.4797,-0.2554 0.0156,-0.0156 0.0382,-0.0187 0.0465,-0.0474 0.0785,-0.2761 1.2543,-0.223 1.4264,-0.2222 0.7823,0.004 0.835,-0.009 1.4334,0.2639 0.5125,0.2342 0.6429,0.474 0.4519,1.1554 -0.1681,0.5984 -0.525,0.4961 -1.0854,0.6647 -1.1288,0.3399 -3.473,0.4184 -4.5842,0.0264 -0.8946,-0.3161 -1.0616,-0.0428 -1.3243,-0.5457 0.7015,-0.2508 1.3807,-0.8039 2.1532,-0.8912 z m -108.9117,19.7374 c -0.123,0.4226 -0.0476,1.8462 -0.0343,2.4108 0.0102,0.4318 0.0156,0.8589 0.0221,1.2901 0.0108,0.6996 0.1406,0.5071 0.2529,0.9244 -0.231,0.0255 -0.0958,0.4875 -0.0612,0.6791 l 0.341,2.4225 c 0.1613,1.0126 0.4663,2.0373 0.7112,2.9838 0.1253,0.4847 0.2925,0.809 0.4175,1.3416 l 0.9457,2.7695 1.7708,3.6918 c 0.4606,0.8138 0.7608,1.5809 1.3569,2.3343 l 2.8828,4.345 2.1385,2.5208 c 1.3173,1.3814 4.2939,4.8694 5.7668,5.5446 0.1928,0.3864 1.4372,1.2886 1.8272,1.5622 l 1.6268,1.1758 c 0.243,0.1559 0.1021,0.071 0.3348,0.1701 0.237,0.2865 3.314,2.1447 3.9246,2.4009 0.2956,0.1242 0.5224,0.2959 0.8226,0.4725 l 1.684,0.8051 0.9318,0.4938 c 0.3141,0.1332 0.8348,0.2608 1.0638,0.4711 l 0.3334,1.1336 c 0.125,0.3852 0.3452,0.7517 0.6375,0.9292 0.0456,0.1698 0.8722,1.0343 0.8957,1.0516 0.2461,0.18 0.311,0.125 0.597,0.3725 0.7733,0.6687 2.4755,1.3232 3.4855,1.3881 1.6824,0.1077 2.0356,0.092 3.4245,-0.4921 0.9375,-0.3943 1.5132,-1.0992 1.9905,-1.8552 2.0619,0.1828 3.8775,0.1836 5.9916,0.086 l 2.8967,-0.2265 c 1.0917,-0.038 1.8451,-0.1287 2.8279,-0.2667 l 4.1275,-0.5681 c 0.4275,-0.074 0.703,-0.2772 1.1509,-0.3174 1.5055,-0.1355 4.5144,-1.1141 6.1044,-1.7014 l 4.3733,-1.9006 c 0.7194,-0.2954 0.9742,-0.6517 1.9618,-1.1081 0.2977,-0.1375 0.5729,-0.4252 0.8932,-0.623 1.0715,-0.6617 2.5745,-1.8791 3.5037,-2.6825 4.6757,-4.9518 5.7823,-6.8017 9.206,-13.7633 l 3.7806,-12.0314 c 0.2993,-0.8198 0.8983,-3.2992 1.0142,-3.6031 0.3666,-0.9615 0.3538,-1.0641 0.8116,-1.1409 6e-4,-0.1319 -0.0111,-0.1134 0.1468,-0.1163 0.1239,-0.2576 0.2741,-0.2755 0.4876,-0.4084 0.1182,-0.074 0.2747,-0.1673 0.43,-0.2943 0.3297,-0.2701 0.4499,-0.4436 0.7914,-0.6545 l 7.5212,-5.4791 c 1.2634,-0.6942 2.6487,-1.821 3.4795,-2.3051 0.1792,-0.1046 0.3019,-0.1434 0.4709,-0.2557 0.2933,-0.1956 0.1077,-0.1862 0.4881,-0.3025 0.2194,-0.2202 0.5406,-0.3461 0.8362,-0.5485 0.3339,-0.2284 0.5752,-0.3818 0.8615,-0.5822 l 1.7951,-1.0752 c 0.007,-0.0122 0.0168,-0.0207 0.021,-0.0371 0.005,-0.0165 0.0224,-0.0286 0.0286,-0.0312 0.1792,-0.0779 -0.1119,-0.0108 0.1588,-0.0371 0.21,-0.364 0.4578,-0.3396 0.9306,-0.6322 l 1.2844,-0.7982 c 1.1815,-0.6058 3.274,-1.8836 4.3721,-2.6127 l 3.3101,-2.8817 c 0.6068,-0.6267 1.4533,-2.0945 1.5998,-3.1025 0.1763,-1.2144 -0.0975,-1.8088 -0.3019,-2.8111 -0.1448,-0.0734 -0.3104,-0.5037 -0.811,-1.0432 -0.1397,-0.1508 -0.1695,-0.2384 -0.3217,-0.4036 -0.5326,-0.578 -1.7986,-1.169 -2.6416,-1.3728 -0.4167,-0.1007 -0.8878,-0.0822 -1.3224,-0.0888 -0.9518,-0.0144 -1.7608,3e-4 -2.6379,0.1415 -1.184,0.1905 -2.9375,0.902 -3.9645,1.421 -0.3597,0.1817 -0.4348,0.3056 -0.8705,0.4765 -0.4896,0.1916 -2.3264,1.597 -2.4872,1.6081 -0.2834,-0.0734 -0.5198,-0.2761 -0.7815,-0.4173 -0.4065,-0.2191 -0.428,-0.2732 -0.7027,-0.4915 -0.4569,-0.3637 -1.2393,-0.7016 -1.8428,-1.2183 l -1.705,-1.2603 c -0.0247,-0.0179 -0.0491,-0.0343 -0.0737,-0.0496 -0.1743,-0.1253 -0.3787,-0.2713 -0.6092,-0.4346 -0.008,-0.0204 -0.0153,-0.0419 -0.021,-0.0654 -0.068,-0.0247 -0.1638,-0.0772 -0.2593,-0.1321 -2.2298,-1.5676 -6.4035,-4.3875 -9.5298,-5.9885 l -0.0836,-0.0924 c -0.0185,-0.0156 -0.0372,-0.0272 -0.0562,-0.0428 l -0.1873,-0.1574 -0.1321,0.0185 c -0.074,-0.0133 -0.1684,-0.0448 -0.2767,-0.089 -0.1295,-0.0613 -0.2565,-0.1197 -0.3807,-0.1749 -0.5746,-0.2858 -1.2994,-0.7152 -1.6713,-0.8694 -0.0969,-0.0335 -0.1559,-0.051 -0.2344,-0.093 -0.0207,-0.0113 -0.0851,-0.0488 -0.106,-0.0624 -0.1157,-0.0762 -0.0831,-0.0501 -0.1642,-0.1272 l -1.5321,-0.7489 c -0.3078,-0.1789 -0.4927,-0.1619 -0.7962,-0.3334 -0.1197,-0.0677 -0.209,-0.1525 -0.3274,-0.2237 -0.0786,-0.0473 -0.1525,-0.0756 -0.2019,-0.1077 l -0.081,-0.0592 c -0.008,-0.006 -0.0267,-0.0278 -0.0324,-0.0329 -0.006,-0.005 -0.0232,-0.0207 -0.0294,-0.0343 -0.3572,-0.0689 -1.4826,-0.6778 -1.8445,-0.8725 -0.1438,-0.0774 -0.2399,-0.1137 -0.377,-0.1854 l -1.4548,-0.7098 c -0.286,-0.1264 -0.4442,-0.2667 -0.7257,-0.3861 -0.5479,-0.2321 -1.0476,-0.4529 -1.4992,-0.6718 -1.0242,-0.496 -2.0611,-0.8705 -3.1655,-1.1985 -4.1862,-1.243 -6.4295,-1.5233 -11.1296,-1.934 -2.6892,-0.235 -5.8992,-0.0343 -8.1414,0.5692 -0.3061,0.0824 -0.5922,0.1046 -0.864,0.1927 -0.8161,0.2656 -2.4455,0.826 -3.1377,1.2104 -0.8957,0.4972 -0.9768,0.4598 -2.1194,1.1741 l -6.2754,4.6401 c -0.2381,0.1542 -0.4033,0.2554 -0.6145,0.4328 l -1.8448,1.4445 c -0.6846,0.4173 -2.3412,1.7178 -3.1,2.2842 -0.2214,0.1653 -0.472,0.2648 -0.6905,0.434 l -2.2107,1.652 c -0.1849,0.1383 -0.1871,0.1463 -0.3379,0.1502 -0.2274,0.3532 -0.2982,0.2384 -0.6602,0.5313 -0.3634,0.2936 -1.8618,1.3878 -2.1637,1.3906 -0.1726,0.3592 -0.2821,0.2801 -0.8351,0.6769 -0.4272,0.3068 -2.2028,1.7241 -2.5994,1.8854 l 0.0176,0.0275 c -0.1854,0.3461 -0.4053,0.4561 -0.6724,0.6911 l -0.6128,0.6584 c -0.0459,0.0692 -0.0851,0.1273 -0.1205,0.1772 0,0 -0.614,0.4618 -4.2848,-0.4501 l -0.0117,-0.0258 c -0.1882,-0.0315 -0.2741,-0.0641 -0.4144,-0.0902 -0.0161,-0.003 -0.0451,-0.008 -0.0791,-0.0133 h -3e-4 l -0.002,-6e-4 -0.006,-8e-4 -0.006,-9e-4 -0.006,-8e-4 -0.006,-10e-4 -0.006,-9e-4 -0.006,-8e-4 -0.006,-10e-4 -0.006,-8e-4 -0.006,-9e-4 -0.006,-10e-4 c -0.0695,-0.0114 -0.1398,-0.023 -0.157,-0.0275 -0.2206,-0.0607 -0.0959,0.0241 -0.237,-0.1066 l -4.0734,-0.5221 c -1.8896,-0.2152 -3.7417,-0.0363 -5.4947,0.2973 -0.3336,0.0638 -0.5839,0.1967 -0.8949,0.2801 -2.0355,0.5465 -1.6523,0.868 -3.0639,1.6843 -1.1067,0.6401 -2.4455,5.1993 -2.7905,6.7057 -0.227,0.9898 -0.1134,0.9414 -0.4362,1.9788 l -0.8456,3.8849 c -0.1174,0.6996 -0.1188,1.3777 -0.2344,2.1062 -0.0939,0.5921 -0.3311,1.4907 -0.2206,2.1106 -0.2588,0.3408 -0.1366,1.6124 -0.0924,1.9571 z m 6.0095,10.6041 c -0.1505,-1.1758 -0.764,-2.3862 -1.0755,-4.8044 -0.1817,-1.4089 -0.3328,-3.8812 -0.3149,-5.3167 0.0102,-0.8124 0.2406,-3.1105 0.144,-3.615 l 0.0833,-0.1769 c 0.007,-0.0204 0.0142,-0.0422 0.0207,-0.0641 l 0.2744,-1.8751 c 0.0553,-0.1984 0.3319,-2.0568 0.5239,-2.7346 l 1.5097,-5.8124 c 0.0354,-0.201 0.0961,-0.4074 0.1774,-0.6154 0.58,-1.482 0.171,-1.3051 1.4559,-1.4324 0.4096,-0.0405 0.5808,-0.1587 0.9689,-0.1941 2.7354,-0.2483 4.2718,-0.1497 6.8958,0.2335 2.4015,0.3507 3.9005,0.8666 6.0889,1.3054 l 1.83,0.5159 c 0.6678,0.2231 4.4935,1.247 5.063,1.6123 l -2.9172,8.2097 c -0.1839,0.4482 0.1727,-0.3424 -0.0567,0.1131 l -0.0694,0.1052 c -0.002,0.254 -0.2787,1.0364 -0.3969,1.3561 l -0.8608,2.6867 c -0.1188,0.4087 -0.0919,0.2849 -0.2433,0.6188 l -1.4445,4.7217 c -0.0584,0.2647 -0.0941,0.4881 -0.167,0.7307 -0.0671,0.224 -0.1561,0.3464 -0.2264,0.635 -0.1355,0.5542 -0.2047,0.9278 -0.3612,1.4213 -0.4535,1.4286 -0.576,2.8559 -0.9538,4.3625 -0.5525,2.2028 -0.7747,5.2546 -0.9754,6.0103 -0.0882,2.0027 -0.237,3.992 -0.0893,5.9944 0.1176,1.5965 0.3724,3.8495 0.8424,5.2084 0.0451,0.3762 0.2909,0.9247 0.4312,1.2645 0.2956,0.7175 0.4221,0.6642 0.2562,1.0194 l -1.5712,-1.2107 -1.4743,-1.1137 c -2.7363,-2.2156 -6.5597,-6.2056 -8.225,-9.0369 -0.1307,-0.1207 -0.0754,-0.0122 -0.0698,-0.2007 -0.2987,-0.1584 -0.187,-0.1057 -0.483,-0.5502 -0.1136,-0.1706 -0.2353,-0.333 -0.3478,-0.5275 -0.3617,-0.6253 -1.8368,-2.8675 -1.9573,-3.4912 -0.0825,-0.0411 -0.023,0.0256 -0.1301,-0.1286 z m 27.371,26.7925 -1.0882,-0.5627 c -0.057,-0.1618 -0.8339,-0.5595 -1.0559,-0.7004 l -0.2999,-0.2812 c -0.3722,-0.1233 -0.1517,-0.163 -0.4238,-0.1851 -0.2194,-0.3427 -0.2636,-0.237 -0.5366,-0.5165 l -1.2974,-1.3541 c -0.777,-0.9108 -2.1353,-3.3809 -2.3763,-4.7157 -0.2775,-0.2435 -0.3895,-1.5531 -0.4572,-1.9432 -0.1176,-0.6791 -0.222,-1.4221 -0.2648,-2.1577 -0.1031,-1.7725 0.1197,-3.3026 0.1236,-4.9598 l 0.3269,-2.6674 c 0.0564,-0.6457 0.1939,-0.7441 0.2831,-1.2078 l 0.6962,-3.7321 c 0.1633,-0.4691 0.1894,-0.7257 0.3116,-1.2195 0.0598,-0.2418 0.1193,-0.3194 0.1638,-0.5919 0.1689,-1.036 0.3285,-0.949 0.4816,-1.7118 0.0717,-0.3572 0.159,-0.9363 0.2911,-1.2546 l 0.521,-1.7187 c 0.089,-0.384 0.0814,-0.2593 0.1928,-0.5232 0.1519,-0.36 0.1576,-0.8703 0.2928,-1.2555 l 1.1225,-3.2916 c 0.0111,-0.4527 0.639,-1.7929 0.819,-2.4409 0.0581,-0.2092 0.0844,-0.2234 0.1715,-0.4791 0.1264,-0.3716 0.151,-0.6993 0.2579,-1.0527 l 0.6919,-1.8599 c 0.1083,-0.4969 0.4655,-1.5933 0.6903,-1.8232 l 1.4989,-3.8361 c 0.258,-0.004 2.6496,1.0485 3.0102,1.2132 l 0.9153,0.4708 c 0.3812,-0.01 1.4768,0.6667 1.8442,0.8672 0.322,0.1754 0.6256,0.2375 0.938,0.4291 l 2.5815,1.3567 c 0.3146,0.1652 0.5737,0.3333 0.9025,0.46 0.796,0.307 0.9573,0.4936 1.3374,0.6738 0.1826,0.0865 0.233,0.0959 0.4207,0.2075 0.4014,0.239 0.5037,0.2416 0.9513,0.423 0.6228,0.2525 1.2138,0.5774 1.7855,0.8631 l 1.8927,0.7659 c 0.3305,0.1976 1.51,0.7141 1.8953,0.7081 0.0961,0.144 -0.0156,0.0559 0.1272,0.1523 0.1455,0.098 0.0499,0.0297 0.1837,0.0683 0.1471,0.0422 0.2662,0.0601 0.4306,0.1074 0.2979,0.2662 3.073,1.1764 3.907,1.4837 0.2432,0.0895 0.4246,0.1992 0.7387,0.2982 l 2.4758,0.799 c 0.2849,0.0825 0.5859,0.1259 0.86,0.1956 0.5017,0.1276 1.2637,0.3215 1.709,0.4859 l 3.4056,0.913 c 0.5972,0.15 1.1809,0.2889 1.7694,0.415 1.4306,0.3073 3.1356,0.7509 4.5521,0.9261 0.3906,0.0482 0.8558,0.2356 1.8471,0.3387 0.3041,0.0315 0.5377,0.1526 0.822,0.1871 1.9352,0.2339 3.7097,0.5993 5.686,0.6602 l 3.0481,-0.006 c -0.0354,0.3044 -0.5179,0.949 -0.7126,1.2889 l -0.6834,1.2883 -0.4442,1.0466 c -0.5227,1.2126 -0.4252,1.1608 -0.796,2.1807 l -1.8618,5.4459 c -0.2304,0.9091 -1.6843,4.2868 -2.0143,4.8917 -0.1349,0.2478 -0.1273,0.3609 -0.2364,0.6653 -0.0176,0.0496 -1.8737,3.3999 -2.2864,3.6624 -0.0204,0.3127 -0.3476,0.7211 -0.5522,0.951 -0.3705,0.4167 -1.5594,1.9953 -1.8972,2.2785 -0.1313,0.11 -0.0278,0.061 -0.1863,0.1151 -0.487,0.7671 -2.1855,2.1025 -2.9188,2.7281 l -0.8771,0.6477 c -0.316,0.2353 -0.2216,0.2605 -0.6151,0.4084 -0.0561,0.2387 -0.0808,0.1208 -0.2987,0.2776 -0.4967,0.3568 -0.3226,0.2931 -1.067,0.693 -0.2812,0.1511 -0.5168,0.3246 -0.7498,0.4601 -0.2695,0.157 -0.515,0.2687 -0.7979,0.4141 -1.0965,0.563 -2.067,1.048 -3.3188,1.4998 -0.3561,0.1285 -0.4218,0.2223 -0.8484,0.3479 -0.3277,0.097 -0.6356,0.1417 -0.9539,0.2616 l -1.785,0.6009 c -2.0775,0.5219 -6.0088,1.3113 -8.1385,1.5211 l -4.43,0.3645 c -1.4309,0.045 -3.4129,0.1049 -4.7633,-0.027 -0.6798,-0.067 -3.9966,-0.3143 -4.2339,-0.4765 -0.7092,-0.055 -1.4272,-0.2398 -2.0384,-0.4232 -0.3251,-0.098 -0.559,-0.1621 -0.8549,-0.2361 -0.3169,-0.079 -0.5343,-0.2622 -0.813,-0.2968 z m 60.5036,-58.6165 c 0,0 -7.1669,-4.4053 -12.4872,-7.2266 l -1.1353,-0.531 c -0.0145,-0.01 -0.0343,-0.0235 -0.0479,-0.0334 -0.0833,-0.0613 -0.0746,-0.0587 -0.1324,-0.1194 l -0.002,-0.001 c -0.3833,-0.0612 -0.7402,-0.3682 -1.0948,-0.5477 -0.2755,-0.1397 -0.9658,-0.4546 -1.2217,-0.5306 l -2.2422,-1.1528 c -0.1701,-0.0893 -0.3036,-0.1341 -0.4425,-0.2039 -0.3328,-0.1666 -0.6367,-0.3143 -0.9051,-0.462 l -4.8867,-1.8425 c -0.4099,-0.1046 -0.6386,-0.2523 -1.0389,-0.3107 -0.4424,-0.0646 -0.7117,-0.1449 -1.1684,-0.2412 -0.4161,-0.0879 -0.7376,-0.0876 -1.2195,-0.1616 -1.6619,-0.254 -2.6966,-0.5729 -4.6723,-0.6537 -1.8916,-0.0776 -3.426,-0.1071 -5.3042,-0.0207 -0.8623,0.04 -1.6047,0.2061 -2.4089,0.3538 l -2.0299,0.5893 c -0.7177,0.2767 -1.2427,0.6083 -1.8448,0.8822 l -2.5321,1.5698 c -0.2056,0.1567 -0.468,0.3866 -0.7688,0.5955 -0.3234,0.2251 -1.3184,0.955 -1.4202,1.1597 -0.517,0.1658 -0.9243,0.7228 -1.4343,1.0514 -0.2143,0.1377 -0.4853,0.3639 -0.6766,0.5198 -0.1052,0.0857 -0.1803,0.1508 -0.294,0.2628 l -0.2968,0.4006 c -0.1712,-0.0698 -0.1941,-0.0188 -0.3458,0.0745 -8e-4,6e-4 -0.1755,0.146 -0.1757,0.146 -0.1095,0.1088 -0.0338,0.0159 -0.0958,0.1182 l -1.9092,1.4238 c -0.1925,0.1792 -0.6687,0.4819 -0.9374,0.6699 -0.3421,0.2395 -0.5984,0.4334 -0.9062,0.6967 l -1.8831,1.332 c -0.3563,0.273 -1.6778,1.2147 -1.8093,1.4346 -0.2041,-0.003 -0.1338,-0.1173 -0.1353,0.0817 -0.4314,0.1394 -0.3809,0.2755 -0.7534,0.5173 -0.2832,0.1842 -0.4365,0.2344 -0.7104,0.4238 -0.3948,0.2727 -0.8112,0.7146 -1.3288,0.9952 l -2.6309,1.9449 0.5086,0.2559 c 0.1936,0.0769 0.2908,0.0876 0.5178,0.1463 0.7113,0.1845 2.2675,0.8283 2.9574,0.942 0.0451,0.1238 0.0105,0.068 0.1786,0.1513 0.1052,0.0519 0.1831,0.0638 0.2976,0.0933 l 2.8012,1.0034 c 1.5563,0.6466 0.7121,0.7521 3.2624,-1.5423 1.5313,-1.3776 3.0167,-2.2447 4.7957,-3.3114 l 1.2532,-0.7529 c 0.2466,-0.1437 0.472,-0.1996 0.7172,-0.3226 0.2922,-0.1468 0.3305,-0.1956 0.6409,-0.3296 l 6.5432,-2.6082 2.4001,-0.5672 c 1.2724,-0.2577 2.0687,-0.4295 3.4166,-0.5944 1.7424,-0.2135 4.0924,-0.1188 5.879,0.0402 0.7832,0.0697 1.0231,0.1522 1.7215,0.2951 l 3.1995,0.9093 c 1.8961,0.7115 2.6716,1.1742 4.2684,1.8451 l 1.9978,1.0466 c 0.3008,0.1397 0.4207,0.0898 0.6928,0.2744 0.5757,0.3903 3.8798,1.9545 4.7259,2.3286 0.5004,0.2214 1.6096,0.866 2.0223,0.8805 0.3294,0.4393 1.8726,0.8679 2.3564,1.1772 l 4.8921,2.0129 c 0.4036,0.1494 0.4311,0.0391 1.3436,0.4158 l 1.3178,0.375 c 1.175,0.3331 2.9806,0.5845 4.3645,0.853 0.5012,0.0972 1.004,0.0799 1.5131,0.1803 1.4151,0.2783 2.441,0.231 3.1221,0.3642 2.321,0.4544 2.5019,-0.2157 2.9577,-0.2381 0.3951,-0.6188 2.5716,-1.3935 2.4965,-1.796 -0.2897,-0.1043 -1.1347,-0.201 -1.539,-0.3076 l -1.5392,-0.4042 c -0.5587,-0.2534 -0.983,-0.3688 -1.5684,-0.5723 -0.6327,-0.2197 -2.2042,-1.082 -2.2748,-1.1069 -0.572,-0.2016 -1.5222,-0.8623 -2.1484,-1.2226 l -1.3802,-0.8615 c -0.316,-0.1746 -0.3704,-0.2684 -0.6465,-0.4844 l -2.7358,-1.7728 h -2e-4 z m -49.3563,9.8989 c -0.1043,-0.1293 -0.0238,-0.0533 -0.1885,-0.18 -0.004,-0.003 -0.1885,-0.1185 -0.1962,-0.1225 -0.1508,-0.0771 -0.3637,-0.1324 -0.5063,-0.1916 -0.2505,-0.2364 -1.2197,-0.6523 -1.703,-0.8966 -0.0298,-0.015 -0.2616,-0.1434 -0.3019,-0.1687 -0.3084,-0.191 -0.0408,0.129 -0.2622,-0.2126 -0.0785,-0.3503 0.8308,-0.9558 1.1103,-1.1945 0.3189,-0.2721 1.0202,-0.8464 1.391,-0.9896 0.2296,-0.2956 2.4375,-1.5565 2.6422,-1.6361 l 1.4201,-0.7529 c 0.3175,-0.1746 0.3195,-0.1959 0.7084,-0.3546 l 1.4525,-0.7044 c 0.477,-0.2532 3.2145,-1.2189 4.0243,-1.4327 l 2.5934,-0.6423 c 0.3906,-0.0762 0.5179,-0.1485 0.8586,-0.2239 1.2045,-0.2662 4.849,-0.4181 6.1263,-0.26 0.7163,0.0885 1.2569,0.112 1.9275,0.2367 0.3989,0.0743 0.4802,0.1474 0.8589,0.1985 0.7317,0.0983 3.2789,1.1922 3.9096,1.5134 0.8558,0.4362 1.4131,0.5386 2.1932,1.0244 0.2684,0.1673 0.4949,0.2052 0.8109,0.3291 l 5.1129,2.431 c 0.5547,0.2407 1.783,0.9244 2.2504,1.0488 l 1.4437,0.7078 c 0.2809,0.1262 0.3901,0.2234 0.7081,0.3323 l 8.015,2.8479 c 0.3892,0.1109 0.3815,0.2132 0.7798,0.2951 l 3.6141,0.6381 c 0.8561,0.0717 1.9968,0.3957 2.8917,0.2979 l 1.3459,0.0658 c 0.0204,0.3832 -0.0879,0.2854 -0.47,0.4793 -0.3113,0.0125 -2.7842,1.9205 -3.2786,2.1753 -0.4708,0.243 -2.7604,2.0988 -3.2199,2.3069 l -0.0479,-0.008 -0.216,0.2523 c -0.0853,0.0791 -0.1431,0.11 -0.2199,0.1743 l -1.2728,1.052 c -1.2949,0.9615 -3.1326,2.4885 -4.0467,3.8358 -0.2302,0.3393 -0.2571,0.6831 -0.4621,1.0397 -0.4067,0.008 -1.5304,-0.3883 -2.143,-0.5609 -0.7222,-0.2033 -1.7237,-0.2909 -1.9649,-0.3802 -0.4729,-0.1746 0.3121,0.1401 -0.1168,-0.0521 l -0.1097,-0.0624 c -0.6407,0.116 -3.7817,-0.5184 -4.4062,-0.6987 -0.6735,-0.1945 -1.5163,-0.2452 -2.1711,-0.4071 -0.3211,-0.0796 -0.6539,-0.1848 -1.0162,-0.2551 -0.1899,-0.0366 -0.3982,-0.0507 -0.5768,-0.0924 -0.1993,-0.0468 -0.2625,-0.1069 -0.4573,-0.159 -1.3864,-0.3716 -2.8442,-0.567 -4.221,-0.9669 -0.2832,-0.0822 -0.2041,-0.0984 -0.4451,-0.1735 -0.1502,-0.0471 -0.3398,-0.0641 -0.5323,-0.1174 -0.332,-0.0915 -0.6285,-0.2389 -0.9244,-0.3268 -0.2472,-0.0737 -0.2679,-0.0604 -0.5179,-0.1154 -0.2988,-0.0657 -0.2117,-0.0663 -0.4997,-0.1391 -1.0491,-0.2656 -4.2869,-1.2334 -4.9856,-1.5492 -0.4836,-0.2182 -1.3527,-0.4912 -1.9227,-0.6415 -0.6446,-0.17 -1.3264,-0.5235 -1.9157,-0.737 -0.1585,-0.0572 -0.3047,-0.0921 -0.4751,-0.1706 l -2.2907,-0.919 c -0.3529,-0.1463 -0.6451,-0.1877 -0.9756,-0.3302 -0.205,-0.0882 -0.2044,-0.1211 -0.4244,-0.2121 l -3.0532,-1.4357 c -0.337,-0.0882 -0.5573,-0.2347 -0.8339,-0.3784 -0.2673,-0.1387 -0.4992,-0.199 -0.7328,-0.3158 l -2.7425,-1.4344 c -0.2957,-0.1822 -0.9853,-0.6876 -1.3422,-0.6808 z" /><path
         id="path28"
         style="fill:#ffffff;fill-opacity:1;fill-rule:nonzero;stroke:none"
         d="m 568.6492,1005.838 -19.5911,-7.48 -1.2563,-6.5903 8.7401,-5.6965 14.8563,5.7586 1.224,4.0946 0.7458,2.795 -5.3166,-2.0611 0.8197,-2.1149 -11.1608,-4.3265 -5.023,2.673 -0.2818,3.4013 13.7257,5.3204 0.8833,-2.2782 7.0781,2.7436 z" /><path
         id="path30"
         style="fill:#ffffff;fill-opacity:1;fill-rule:nonzero;stroke:#ffffff;stroke-width:0.216;stroke-linecap:butt;stroke-linejoin:miter;stroke-miterlimit:22.9256;stroke-dasharray:none;stroke-opacity:1"
         d="m 570.9467,988.7142 0.5286,2.022 -14.6775,-5.6895 2.3706,-1.6509 2.7896,-1.8065 4.5859,1.7507 1.5695,-1.2254 -4.4277,-1.7164 1.7158,-1.1517 2.5124,-1.7286 0.796,3.011 1.2736,4.4288 -0.766,1.3609 -6.8422,-2.7773 -1.5752,1.2398 z" /><path
         id="path32"
         style="fill:#ed1c24;fill-opacity:1;fill-rule:nonzero;stroke:none"
         d="m 115.9157,1157.2328 c 4.6905,-0.5432 9.6154,0.3393 14.7751,2.6464 5.1593,2.3071 10.2855,5.4286 15.3779,9.3642 5.0925,3.9359 10.0848,8.5164 14.976,13.7415 4.8918,5.2251 9.4144,10.484 13.5692,15.7771 4.1544,5.2929 7.8732,10.4162 11.1566,15.37 3.2834,4.9536 5.9304,9.2625 7.9404,12.9269 1.0721,2.0358 2.3451,3.2573 3.8194,3.6643 1.474,0.4074 2.7473,0.3053 3.8194,-0.3053 1.0721,-0.6108 1.7759,-1.6625 2.111,-3.1555 0.335,-1.4927 -0.0338,-3.1893 -1.1058,-5.0893 -7.1028,-12.2145 -14.4735,-23.5128 -22.1125,-33.8953 -7.6388,-10.3822 -15.5121,-19.2379 -23.62,-26.5666 -8.1079,-7.3287 -16.4169,-12.8591 -24.9265,-16.5912 -8.5101,-3.7323 -17.2545,-5.0556 -26.2335,-3.9699 -5.7628,0.5428 -10.4867,2.4769 -14.1721,5.802 -3.6853,3.325 -6.4995,7.6002 -8.4427,12.8253 -1.9431,5.2251 -3.0824,11.2306 -3.4174,18.0165 -0.3351,6.7855 0.0334,13.9787 1.1055,21.5787 1.2061,9.2288 3.3503,18.7291 6.4326,28.5007 3.0824,9.7716 6.8012,19.2716 11.1569,28.5003 4.3555,9.2288 9.3141,17.7789 14.8754,25.6507 5.5616,7.8716 11.4917,14.4536 17.7905,19.7468 6.2989,5.2928 12.8319,9.0252 19.5996,11.1965 6.7677,2.1716 13.5692,2.1036 20.4035,-0.2035 4.2885,-1.3572 7.3378,-4.309 9.1468,-8.8554 1.8091,-4.5465 2.7136,-9.9754 2.7136,-16.2862 0,-6.3108 -0.737,-13.1984 -2.2113,-20.6629 -1.474,-7.4645 -3.3502,-14.8609 -5.6284,-22.1896 -2.2782,-7.3287 -4.8246,-14.2843 -7.6388,-20.8664 -2.8143,-6.5823 -5.5616,-12.1807 -8.2418,-16.795 -0.8042,-1.2214 -2.4125,-1.7643 -4.8248,-1.6288 -2.4123,0.1358 -4.7237,0.8144 -6.935,2.0359 -2.2113,1.2214 -3.8866,2.8162 -5.0258,4.784 -1.139,1.9678 -0.7702,4.1054 1.1058,6.4126 1.3402,1.7642 3.1493,4.9538 5.4275,9.568 2.2782,4.6145 4.6236,9.8734 7.0359,15.7771 2.4122,5.9037 4.6235,12.079 6.6336,18.5252 2.0103,6.4466 3.4174,12.3843 4.2216,17.813 0.8042,5.4286 0.8042,9.9073 0,13.4359 -0.8042,3.5288 -2.8142,5.4286 -6.0307,5.7002 -3.2164,0.1358 -6.8683,-1.7303 -10.9556,-5.5984 -4.0876,-3.8679 -8.2755,-9.025 -12.564,-15.4715 -4.2885,-6.4466 -8.4764,-13.8433 -12.5637,-22.1899 -4.0876,-8.3466 -7.7729,-16.9305 -11.0565,-25.7522 -3.2834,-8.8217 -5.9633,-17.5074 -8.0405,-26.0575 -2.0772,-8.5504 -3.183,-16.2184 -3.3171,-23.004 -0.1341,-6.7859 0.8711,-12.3843 3.0152,-16.795 2.1444,-4.411 5.7628,-6.8876 10.8555,-7.4304" /><path
         id="path34"
         style="fill:#00aeef;fill-opacity:1;fill-rule:nonzero;stroke:none"
         d="m 243.148,1193.701 c 1.0723,0.1358 1.8428,-0.2372 2.3116,-1.1194 0.4692,-0.8824 0.7039,-1.9 0.7039,-3.0537 0,-1.1537 -0.2347,-2.2054 -0.7039,-3.1556 -0.4688,-0.9498 -1.0383,-1.4249 -1.7084,-1.4249 -3.0824,-0.4071 -5.9638,-0.5429 -8.644,-0.4071 -2.6801,0.1358 -5.8294,0.8144 -9.4479,2.0359 -0.6701,-1.3573 -1.5412,-3.2233 -2.6132,-5.5985 -1.0724,-2.3751 -2.3789,-4.818 -3.9201,-7.3287 -1.5411,-2.5106 -3.3502,-4.9535 -5.4274,-7.3287 -2.0773,-2.3751 -4.3892,-4.2412 -6.9353,-5.5984 -2.1441,-1.2214 -4.8583,-1.5945 -8.1417,-1.1197 -3.283,0.4751 -6.5664,1.459 -9.8498,2.952 -3.2834,1.4928 -6.1982,3.3928 -8.7443,5.6999 -2.5464,2.3074 -4.1547,4.8181 -4.8246,7.5325 -1.0723,3.6644 -1.2733,7.668 -0.6032,12.011 0.6701,4.343 1.7422,8.5839 3.2165,12.7233 1.474,4.1394 3.2496,7.9396 5.3269,11.4004 2.0772,3.4605 4.0538,6.0732 5.93,7.8375 0.6701,0.6786 1.4072,1.2892 2.2113,1.832 0.8042,0.5432 1.5412,1.1537 2.2113,1.8323 -0.536,2.85 -0.871,5.734 -1.0051,8.652 -0.1341,2.9179 0.536,5.7342 2.0103,8.4483 1.2062,2.1717 3.7188,3.5626 7.5382,4.1735 3.8194,0.6106 7.84,0.3053 12.0614,-0.9162 4.2216,-1.2214 8.0745,-3.4608 11.5588,-6.7181 3.4844,-3.257 5.5616,-7.6 6.2317,-13.0286 0.6701,-5.0216 0.6364,-9.8396 -0.1006,-14.4538 -0.737,-4.6146 -1.6415,-9.3646 -2.7136,-14.2504 1.2061,-0.8144 3.1827,-1.4249 5.9301,-1.8323 2.7473,-0.407 5.4609,-0.3393 8.1411,0.2035 z m -51.0594,-23.411 c 5.2265,3.1215 9.0794,6.7858 11.5586,10.993 2.4794,4.2072 4.6573,8.6859 6.5333,13.436 -4.6902,3.2573 -8.3087,7.3967 -10.855,12.4183 -0.6701,-0.6787 -1.5412,-2.511 -2.6133,-5.4967 -1.0723,-2.9857 -2.1107,-6.4125 -3.1158,-10.2804 -1.0052,-3.8682 -1.7087,-7.736 -2.111,-11.6039 -0.4019,-3.8679 -0.201,-7.0234 0.6032,-9.4663 z m 21.1071,36.0329 c 0.8042,1.9 1.3402,4.1731 1.6084,6.8198 0.2678,2.6465 0.3016,5.2929 0.1006,7.9393 -0.201,2.6464 -0.536,5.0216 -1.0052,7.1252 -0.4691,2.1036 -0.9717,3.6303 -1.5077,4.5805 -2.1444,-2.7145 -3.1159,-6.4466 -2.9149,-11.1969 0.201,-4.75 1.4406,-9.8393 3.7188,-15.2679" /><path
         id="path36"
         style="fill:#a6ce38;fill-opacity:1;fill-rule:nonzero;stroke:none"
         d="m 262.8017,1139.3181 c -0.5363,-0.1358 -1.2396,-0.1698 -2.1107,-0.1018 -0.8711,0.068 -1.9766,0.1695 -3.3168,0.3053 -2.5464,0 -5.8966,1.6965 -10.0511,5.0893 -4.1544,3.2573 -7.103,8.4144 -8.8452,15.4718 -0.1338,0.6786 -0.2344,1.425 -0.3013,2.2394 -0.0669,0.8141 -0.1007,1.6285 -0.1007,2.4429 -0.2681,5.0216 0.1676,10.925 1.3068,17.7108 1.1393,6.7859 3.0487,14.4539 5.7291,23.004 2.5464,8.5502 5.5616,17.1343 9.0459,25.7525 3.4847,8.6179 7.3707,17.2698 11.6592,25.9557 4.2885,8.5502 8.4093,15.7771 12.3628,21.6808 3.9534,5.9037 7.6725,10.4842 11.1568,13.7412 1.0721,0.6787 2.0773,1.018 3.0152,1.018 1.0724,0 2.3792,-0.2713 3.9201,-0.8144 1.5412,-0.5429 3.2499,-1.5608 5.1262,-3.0535 l 1.2061,-0.6109 c 3.6184,-2.1713 5.5613,-4.3426 5.8294,-6.5143 0.1341,-0.6786 -0.2681,-1.493 -1.2061,-2.4429 -7.1028,-6.5143 -14.0046,-15.4717 -20.7054,-26.8718 -6.5664,-11.5359 -12.128,-23.5469 -16.6847,-36.0329 -4.8246,-12.4861 -8.2417,-24.5648 -10.2518,-36.2364 -1.6081,-8.2786 -2.2782,-15.6073 -2.0103,-21.9861 0.1341,-1.0857 0.3013,-2.4769 0.5026,-4.1732 0.2009,-1.6965 0.5025,-3.6983 0.9045,-6.0055 1.0721,-4.6145 4.5564,-6.9893 10.453,-7.1251 -1.8762,-1.6288 -4.0875,-2.4429 -6.6336,-2.4429" /><path
         id="path38"
         style="fill:#9e76b4;fill-opacity:1;fill-rule:nonzero;stroke:none"
         d="m 335.8352,1194.6903 c 1.0724,0.1358 1.8428,-0.2372 2.3117,-1.1194 0.4691,-0.8824 0.7038,-1.9 0.7038,-3.0537 0,-1.1537 -0.2347,-2.2054 -0.7038,-3.1556 -0.4689,-0.9499 -1.0384,-1.4249 -1.7085,-1.4249 -3.0824,-0.4071 -5.9638,-0.5429 -8.6439,-0.4071 -2.6805,0.1358 -5.8298,0.8144 -9.4479,2.0358 -0.6701,-1.3572 -1.5412,-3.2232 -2.6133,-5.5984 -1.0723,-2.3751 -2.3791,-4.818 -3.9203,-7.3287 -1.5412,-2.5106 -3.3503,-4.9535 -5.4272,-7.3287 -2.0772,-2.3751 -4.3892,-4.2412 -6.9355,-5.5984 -2.1442,-1.2214 -4.858,-1.5945 -8.1414,-1.1197 -3.2834,0.4751 -6.5668,1.459 -9.8498,2.952 -3.2834,1.4928 -6.1986,3.3928 -8.7446,5.6999 -2.5461,2.3074 -4.1545,4.8181 -4.8243,7.5325 -1.0724,3.6644 -1.2733,7.668 -0.6032,12.011 0.6701,4.343 1.7421,8.5839 3.2164,12.7233 1.4738,4.1394 3.2497,7.9396 5.3269,11.4004 2.0772,3.4605 4.0538,6.0732 5.9301,7.8375 0.6701,0.6786 1.4071,1.2892 2.2113,1.832 0.8042,0.5431 1.5412,1.1537 2.2113,1.8323 -0.536,2.85 -0.8711,5.734 -1.0052,8.6519 -0.1341,2.918 0.5361,5.7343 2.0104,8.4484 1.2061,2.1716 3.7187,3.5626 7.5381,4.1735 3.8194,0.6106 7.8401,0.3053 12.0614,-0.9162 4.2214,-1.2214 8.0745,-3.4608 11.5589,-6.7181 3.484,-3.257 5.5613,-7.6 6.2314,-13.0286 0.6701,-5.0216 0.6366,-9.8396 -0.1004,-14.4539 -0.737,-4.6145 -1.6418,-9.3645 -2.7139,-14.2503 1.2062,-0.8144 3.1831,-1.425 5.9304,-1.8323 2.7473,-0.4071 5.461,-0.3393 8.1411,0.2035 z m -51.0593,-23.411 c 5.2265,3.1215 9.0793,6.7858 11.5585,10.993 2.4795,4.2072 4.6571,8.6859 6.5333,13.436 -4.6905,3.2572 -8.3086,7.3967 -10.855,12.4183 -0.6701,-0.6787 -1.5412,-2.511 -2.6132,-5.4967 -1.0724,-2.9857 -2.111,-6.4125 -3.1162,-10.2804 -1.0051,-3.8682 -1.7084,-7.7361 -2.1106,-11.6039 -0.402,-3.8679 -0.201,-7.0234 0.6032,-9.4663 z m 21.107,36.0329 c 0.8042,1.9 1.3402,4.1731 1.6084,6.8198 0.2679,2.6465 0.3013,5.2929 0.1004,7.9393 -0.201,2.6464 -0.5361,5.0216 -1.0049,7.1252 -0.4692,2.1036 -0.9717,3.6303 -1.5078,4.5805 -2.1444,-2.7145 -3.1158,-6.4466 -2.9148,-11.1969 0.2009,-4.75 1.4405,-9.8393 3.7187,-15.2679" /><path
         id="path40"
         style="fill:#fff200;fill-opacity:1;fill-rule:nonzero;stroke:none"
         d="m 389.3057,1203.8513 c 0.1341,-1.2214 0.4354,-2.0695 0.9045,-2.5446 0.4689,-0.4751 0.938,-0.8144 1.4072,-1.0179 0.4691,-0.2036 0.871,-0.4071 1.2061,-0.6106 0.3351,-0.2038 0.4354,-0.6449 0.3013,-1.3235 -0.2679,-1.0857 -1.4405,-1.6963 -3.5178,-1.8321 -2.0772,-0.1357 -4.3217,0.068 -6.734,0.6106 -2.4122,0.5431 -4.657,1.3235 -6.7342,2.3412 -2.0773,1.0179 -3.2499,2.2056 -3.5181,3.5625 -0.6701,2.3074 -0.938,4.7841 -0.8042,7.4305 0.1341,2.6467 0.1341,5.3272 0,8.0413 -7.1025,-7.8715 -13.2001,-16.3876 -18.2928,-25.5486 -5.0927,-9.161 -9.1128,-19.8485 -12.0611,-32.063 -0.402,-1.493 -1.5078,-2.2734 -3.3172,-2.3411 -1.809,-0.068 -3.7187,0.3053 -5.7291,1.1197 -2.01,0.8141 -3.7522,1.8997 -5.2265,3.257 -1.4743,1.3572 -2.0772,2.7822 -1.809,4.2752 1.2061,7.3287 2.9148,14.9967 5.1261,23.004 2.2113,8.0073 4.7909,15.9128 7.7392,23.7163 2.9483,7.8038 6.0979,15.2343 9.4479,22.2917 3.3505,7.0571 6.6339,13.3679 9.8501,18.9323 0.6701,1.2214 1.6083,1.9681 2.8145,2.2394 1.2061,0.2715 2.4792,0.2035 3.8194,-0.2036 3.0824,-1.0856 5.26,-2.4089 6.533,-3.9696 1.2733,-1.5608 1.4406,-3.3591 0.5026,-5.3949 -1.7422,-3.7998 -3.6182,-7.7698 -5.6285,-11.9092 -2.0103,-4.1392 -4.0876,-8.8554 -6.2317,-14.1483 2.0103,2.85 3.8194,5.4964 5.4275,7.9393 1.4743,2.0358 2.7808,4.0036 3.92,5.9037 1.139,1.9001 1.8426,3.0538 2.1107,3.4608 1.2062,1.9001 2.211,2.952 3.0152,3.1556 0.8042,0.2035 2.1442,-0.1018 4.0204,-0.9162 3.7525,-1.493 6.567,-2.5787 8.443,-3.2573 1.8763,-0.6786 3.1496,-1.5608 3.8197,-2.6464 0.6701,-1.0857 0.8711,-2.6464 0.6029,-4.6823 -0.2679,-2.0355 -0.6029,-5.1571 -1.0051,-9.3645 -0.804,-6.1073 -0.938,-11.943 -0.402,-17.5074" /><path
         id="path42"
         style="fill:#ec008c;fill-opacity:1;fill-rule:nonzero;stroke:none"
         d="m 456.8488,1222.7839 c 1.8762,0.2713 4.0204,-0.2038 6.4326,-1.4252 2.4123,-1.2215 4.1545,-2.3071 5.2269,-3.257 -0.5361,-0.5429 -0.9049,-0.8484 -1.1058,-0.9162 -0.201,-0.068 -0.4354,-0.068 -0.7036,0 -0.2679,0.068 -0.6364,0.1698 -1.1055,0.3053 -0.4689,0.1358 -1.1058,0.1358 -1.9097,0 -2.0103,-0.4071 -4.9587,-1.7303 -8.8452,-3.9696 -3.8861,-2.2394 -7.9067,-4.7501 -12.0612,-7.5323 -4.1544,-2.7822 -8.0073,-5.4966 -11.5588,-8.143 -3.5513,-2.6465 -5.8629,-4.5805 -6.935,-5.802 0.6701,-1.0857 1.34,-2.1036 2.0101,-3.0535 0.6701,-0.9501 1.3402,-1.9681 2.0103,-3.0537 2.0103,-3.6644 2.8811,-7.3287 2.613,-10.9931 -0.2679,-3.6643 -1.3734,-7.2269 -3.3168,-10.6877 -1.9432,-3.4608 -4.5227,-6.6838 -7.7392,-9.6699 -3.2165,-2.9857 -6.6339,-5.4963 -10.2523,-7.5322 -2.4123,-1.3572 -5.1259,-2.3411 -8.1411,-2.9517 -3.0155,-0.6109 -5.9638,-0.8144 -8.845,-0.6109 -2.8811,0.2036 -5.5616,0.7804 -8.0407,1.7306 -2.4795,0.9499 -4.4227,2.3411 -5.8298,4.1732 -1.4074,1.8323 -2.1444,4.0376 -2.2113,6.6163 -0.0672,2.5784 0.9048,5.5641 2.9149,8.9572 3.0824,5.1574 7.0693,9.9751 11.9608,14.4539 4.8914,4.4787 9.8835,8.6859 14.9763,12.6215 -2.4123,3.5289 -4.8583,6.8876 -7.3375,10.0772 -2.4795,3.1892 -4.1879,6.7518 -5.1262,10.6874 -0.8039,3.5289 -0.9714,7.0915 -0.5023,10.6878 0.4691,3.5966 1.4406,7.0234 2.9146,10.2807 1.4743,3.257 3.384,6.2767 5.7291,9.0589 2.3454,2.7822 4.9921,5.1911 7.9404,7.227 1.474,0.9501 3.2162,1.3912 5.2265,1.3232 2.0104,-0.068 4.0207,-0.4411 6.0307,-1.1197 2.0104,-0.6786 3.8529,-1.4927 5.5282,-2.4429 1.6752,-0.9499 2.982,-1.7643 3.9197,-2.4429 3.4844,5.7002 6.5336,9.9414 9.1468,12.7236 2.613,2.7822 4.724,4.9198 6.3321,6.4125 0.938,0.6786 2.2113,0.5091 3.8194,-0.5088 1.6084,-1.0179 3.1158,-2.3751 4.5229,-4.0717 1.4072,-1.6962 2.4792,-3.4268 3.2165,-5.1911 0.737,-1.7642 0.6364,-2.9857 -0.3019,-3.6643 -2.1441,-1.493 -4.6902,-3.8679 -7.6385,-7.1252 -2.9483,-3.2573 -5.6957,-6.7178 -8.242,-10.3822 -2.5464,-3.6643 -4.523,-7.2269 -5.9301,-10.6877 -1.4071,-3.4608 -1.6418,-6.277 -0.7036,-8.4484 -0.6701,-0.2715 -1.5746,-0.2035 -2.7138,0.2036 -1.139,0.407 -2.2783,1.0179 -3.4175,1.832 -1.139,0.8144 -2.1776,1.8663 -3.1156,3.1555 -0.9382,1.2892 -1.608,2.6805 -2.0103,4.1732 -0.2679,1.0859 -0.2679,2.3411 0,3.7664 0.2682,1.4249 0.6032,2.8159 1.0052,4.1731 0.4019,1.3573 0.8711,2.6465 1.4071,3.8679 0.536,1.2215 0.9383,2.1716 1.2061,2.8502 -2.5463,0.1355 -4.9252,-1.2554 -7.1365,-4.1734 -2.211,-2.918 -3.8528,-6.4125 -4.9249,-10.4842 -1.072,-4.0714 -1.474,-8.3126 -1.2061,-12.7233 0.2681,-4.4107 1.6753,-8.1091 4.2216,-11.0948 2.5461,1.6285 5.5279,3.6643 8.9453,6.1072 3.4175,2.4429 6.8684,4.8518 10.3527,7.2269 3.4843,2.3749 6.9352,4.4448 10.3524,6.209 3.4175,1.7643 6.3995,2.85 8.9456,3.2573 z m -64.9298,-66.5691 c 1.8762,0.1355 4.1207,1.1875 6.7339,3.1553 2.6133,1.9681 5.0256,4.3092 7.2369,7.0234 2.2113,2.7144 3.9535,5.4966 5.2268,8.3466 1.273,2.8499 1.5075,5.1573 0.7033,6.9216 -4.1545,-3.9359 -8.0742,-7.9055 -11.7598,-11.9092 -3.6854,-4.0036 -6.399,-8.5161 -8.1411,-13.5377" /></g></g></svg>
