<?xml version="1.0" encoding="UTF-8" standalone="no"?>
<svg
   xmlns:dc="http://purl.org/dc/elements/1.1/"
   xmlns:cc="http://creativecommons.org/ns#"
   xmlns:rdf="http://www.w3.org/1999/02/22-rdf-syntax-ns#"
   xmlns:svg="http://www.w3.org/2000/svg"
   xmlns="http://www.w3.org/2000/svg"
   xmlns:sodipodi="http://sodipodi.sourceforge.net/DTD/sodipodi-0.dtd"
   xmlns:inkscape="http://www.inkscape.org/namespaces/inkscape"
   inkscape:version="1.0 (4035a4fb49, 2020-05-01)"
   sodipodi:docname="logoBC.svg"
   id="svg92"
   version="1.1"
   viewBox="0 0 157.42443 156.96933"
   height="593.2699"
   width="594.98999">
  <defs
     id="defs86" />
  <sodipodi:namedview
     fit-margin-bottom="0"
     fit-margin-right="0"
     fit-margin-left="0"
     fit-margin-top="0"
     inkscape:pagecheckerboard="false"
     borderlayer="false"
     units="px"
     inkscape:window-maximized="0"
     inkscape:window-y="40"
     inkscape:window-x="182"
     inkscape:window-height="1040"
     inkscape:window-width="1274"
     showgrid="false"
     inkscape:document-rotation="0"
     inkscape:current-layer="layer1"
     inkscape:document-units="px"
     inkscape:cy="363.80543"
     inkscape:cx="450.4554"
     inkscape:zoom="0.7"
     inkscape:pageshadow="2"
     inkscape:pageopacity="0.0"
     borderopacity="1.0"
     bordercolor="#666666"
     pagecolor="#ffffff"
     id="base" />
  <metadata
     id="metadata89">
    <rdf:RDF>
      <cc:Work
         rdf:about="">
        <dc:format>image/svg+xml</dc:format>
        <dc:type
           rdf:resource="http://purl.org/dc/dcmitype/StillImage" />
        <dc:title></dc:title>
      </cc:Work>
    </rdf:RDF>
  </metadata>
  <g
     transform="translate(-24.853262,-12.985575)"
     style="display:inline"
     id="layer1"
     inkscape:groupmode="layer"
     inkscape:label="Layer 1">
    <g
       transform="translate(-2.2678571,-17.386905)"
       id="g142">
      <path
         id="path68"
         style="fill:#000000;fill-opacity:1;fill-rule:evenodd;stroke:none;stroke-width:0.352777"
         d="m 69.174167,177.4728 3.20999,2.49901 c 3.79261,1.07749 2.29351,-0.41952 4.8678,0.99367 1.49271,0.81932 -0.28299,0.9242 3.83202,2.5419 8.22737,3.23431 24.238793,4.59483 32.915893,3.41433 l 0.89708,-2.30043 c 3.26492,2.10192 1.03082,2.50751 6.57313,1.36701 7.20418,-1.48209 14.42907,-3.18431 16.87809,-8.88079 l -4.49019,0.98041 -4.42292,4.46507 c -3.76819,-2.37917 -9.44509,0.7892 -15.44401,1.37153 -2.32967,0.22609 -6.71099,0.82088 -7.8305,0.78599 -10.243573,-0.318 -28.542093,-4.13879 -36.109983,-9.73032 -1.50541,0.75953 -1.26721,-1.5676 -0.8764,2.49262 z M 44.190476,59.562689 41.515257,64.528601 c 5.803512,1.021889 2.723797,-0.872596 11.007619,-8.679004 7.892701,-7.437403 8.193471,-7.26059 17.508181,-13.034186 4.34001,-2.690108 0.96672,-0.175719 1.8082,-2.382309 5.47299,0.224684 3.4271,-0.796713 6.88181,-2.165103 1.5475,-0.613198 5.4888,-1.298787 7.9042,-2.088515 l 0.19241,-3.406493 -2.41992,1.96342 c -5.8504,-0.460516 -11.18489,3.206997 -17.88721,6.451495 -0.88427,0.428378 -1.63209,0.971197 -2.24839,1.382395 -13.004095,8.678897 -8.12479,6.119106 -15.656596,13.006986 -1.068881,0.977407 -1.560407,1.446318 -2.309389,2.171699 z M 147.29998,49.2644 C 136.93237,39.768292 117.43466,35.633984 102.33676,36.157294 96.983777,36.342785 91.054247,37.297296 86.462957,39.980982 l 7.5039,-0.951371 c 6.595323,-1.614629 30.353603,0.419382 39.719213,4.92499 4.90968,2.361988 7.78161,5.703605 13.61391,5.309799 z M 34.266555,75.536183 C 32.119162,84.13888 29.161861,88.952709 27.794883,99.4397 l -0.447217,5.10208 c 5.051707,-1.00707 2.823986,1.1817 2.713602,-2.59108 -0.06131,-2.089395 -1.237897,-0.58981 0.994481,-2.515305 0.331611,-6.034405 2.476605,-12.618085 4.695507,-18.166996 l 4.692403,-10.581992 c 1.514793,-2.549207 1.018716,2.257283 1.847815,-3.293604 -8.024813,-0.603216 -2.330591,5.100179 -8.024919,8.14338 z M 169.29475,145.35761 c 0.69773,-2.00092 0.96171,-2.5666 0.18821,-4.81651 4.80751,-0.57559 0.82702,0.36689 3.89241,-2.53792 0.7046,-2.6676 1.98928,-5.55847 2.49079,-8.19838 0.11631,-0.61059 0.29661,-2.42129 0.2976,-2.42499 l 0.65412,-1.88292 c 2.70739,-7.46919 1.81028,-21.7998 2.00378,-22.47328 l -2.43671,-1.2833 c -0.30949,19.9953 0.4015,12.9045 -3.66959,29.61939 -1.60588,6.59289 -0.54141,3.1998 -5.75751,12.92751 1.03092,1.47348 -0.78409,0.26638 2.3369,1.0704 z M 145.91617,40.893089 c -4.67709,-0.421887 -13.25111,-7.820307 -18.26549,-6.431703 1.9407,3.784811 13.13127,8.336915 19.7945,11.456917 l 2.7498,1.960491 c 0.12357,0.126295 0.30487,0.343289 0.43557,0.474204 l 5.54351,4.319694 c -0.51671,-1.039495 -1.50611,-2.788885 -1.75591,-3.394393 -2.34788,-5.691293 -1.70099,-2.240985 -6.93208,-6.744405 z M 65.424377,50.925595 c -0.8437,-1.48149 -0.44072,-0.384986 -1.6584,-0.999596 -3.96671,2.077403 -8.161518,6.796511 -12.099011,10.476512 -2.404991,2.247794 -7.584898,9.724178 -9.326703,13.746091 6.672509,-0.135395 3.375307,-7.662016 20.083714,-20.047901 z M 36.850476,101.08188 c -1.40462,-4.028793 3.659576,-20.437791 6.008794,-22.282678 -0.168487,-0.213606 -0.333905,-0.881909 -0.417019,-0.701604 -0.07899,0.171413 -0.359586,-0.523594 -0.457376,-0.626888 l -1.049408,-0.946501 c -3.344792,6.635996 -6.428493,15.732794 -7.152605,23.808191 2.379592,2.0778 -0.172297,0.41529 3.067614,0.74948 z m 42.003271,36.57473 c -1.89738,-0.44831 -0.63877,0.69219 -2.66389,-1.74943 1.98261,9.30671 22.56112,15.3313 28.854293,14.7476 4.78381,-0.4438 0.99282,0.1397 2.66291,-0.9857 -3.5675,-1.5325 -19.197393,-1.42438 -27.535683,-10.15527 -1.20753,-1.2645 -0.3447,-0.22832 -1.31763,-1.8572 z M 172.55767,69.582883 c -0.3858,-2.947072 -6.14772,-11.436387 -9.92022,-13.672573 -5.11087,-3.029621 2.6211,0.748594 -2.5285,-3.299707 -1.89078,0.297991 0.11042,-0.787718 -1.81857,2.562683 5.1054,3.326096 4.33617,4.257217 5.5547,6.008899 2.25238,3.2379 3.71489,4.015917 6.05387,8.368102 z m 2.44048,20.003098 c 1.1341,-1.495988 1.1256,0.276014 0.8322,-2.492092 -0.004,-0.01728 -0.8829,-2.502606 -0.96749,-2.727184 -1.752,-4.641321 -4.17548,-13.056516 -9.66971,-14.316393 1.27451,3.255187 3.14981,5.558192 4.81182,9.21939 l 2.89951,7.881089 c 1.3776,3.301296 0.075,1.307502 2.09367,2.43519 z M 38.24797,145.28229 c 1.328808,-3.94131 -1.972204,-4.33638 -4.412191,-13.3157 -1.017306,-3.7434 0.208103,-3.7899 -2.891297,-4.7104 -0.259221,2.0459 0.42157,4.18571 1.829682,6.1008 -0.432294,2.21841 -1.6383,1.43111 0.295205,5.71881 2.912604,6.45841 3.766008,-0.71491 2.717482,6.63578 z m -10.734816,-29.11701 0.141217,0.007 0.604802,4.54163 2.745599,-2.44101 -0.489303,-9.90269 c 0.0139,-6.1669 -0.197308,-2.39472 -1.404408,-3.88821 -2.727184,3.9007 -1.984198,3.94529 -1.597907,11.68309 z m 58.271623,59.99681 c -5.87481,-1.86969 -7.10932,-3.6794 -9.88861,-2.27309 1.69559,1.40191 -1.98021,-0.0256 2.56251,2.3905 4.48207,2.38379 7.74989,1.52329 7.89269,1.5361 2.46031,0.22069 2.9325,1.3403 4.6204,2.02229 3.36748,1.3606 3.46231,1.31311 5.96989,-0.56649 -2.25309,-1.72152 -1.80711,-0.8455 -5.63619,-1.6529 -1.78389,-0.3761 -3.97849,-0.96569 -5.52069,-1.45641 z M 181.22665,86.88141 177.31057,76.499197 c -0.25922,-0.537493 -0.50811,-1.058899 -0.7777,-1.761595 l -0.26811,-1.162299 -1.90789,1.667581 c -0.1904,3.103597 3.14131,12.254511 5.12928,14.176799 2.3151,-1.537301 0.36611,-0.178295 1.7405,-2.538273 z m 0.54261,29.30098 c 1.87501,-1.24739 1.7346,-0.7529 2.20891,-2.93391 l 0.56738,-5.72149 c -0.1161,-2.7716 -0.7468,-3.38201 -1.03579,-4.80201 -0.37899,-1.86408 -0.16701,-1.21589 -0.0159,-4.182078 l -2.71949,1.255607 c 3.04041,0.732091 -0.0268,-0.285713 1.66719,1.430801 -1.00619,3.66137 -2.44599,10.3281 -0.67239,14.95308 z M 52.768974,163.21081 c -1.208617,-2.76063 -3.386208,-4.6167 -5.50792,-6.88732 -1.616075,-1.72981 -3.649098,-5.61481 -5.831487,-6.30809 2.389293,5.54401 3.2385,0.2304 1.828095,6.85751 2.277603,1.71139 4.750188,4.88717 6.109088,7.19127 z M 101.87465,31.529697 c 1.50612,0.335491 1.4169,-0.0708 2.18183,1.983704 0.0121,0.03298 0.0388,0.201789 0.0759,0.297004 4.33772,0.0943 4.76109,-0.790998 7.17631,-2.872423 1.79098,4.254924 -0.90399,1.649625 2.6912,3.517019 4.47848,-1.55822 3.02098,-0.942799 3.8681,-3.585916 L 102.34838,30.37248 Z m 75.6315,107.562503 c 2.49033,-2.70439 4.99801,-9.06949 3.7665,-13.73321 -5.22919,1.9438 0.40792,-1.09259 -3.52619,6.42359 -2.47911,4.73583 -0.2256,2.58311 -0.24031,7.30962 z m -115.169493,34.57491 0.16401,-3.2022 -2.37451,0.27767 c -0.19259,-0.43247 -0.44789,-0.96548 -0.51248,-0.81308 -0.009,0.0207 -2.752621,-5.15631 -6.844703,-6.71869 l -1.716617,1.20738 c 2.424712,3.57142 2.381497,2.7504 3.978909,3.72311 1.458383,0.8883 0.470112,0.003 1.627788,1.11891 1.930293,1.86009 -0.864587,0.33379 2.643323,2.90039 1.22227,0.89458 1.65538,1.14099 3.03428,1.50651 z m -25.88549,-57.8521 c -0.960085,-4.69773 -0.950313,-9.33073 0.01969,-14.03251 l -3.012969,0.48591 c 0.61147,4.99798 -0.330518,6.3027 -0.0053,13.1402 z m 97.278893,60.77267 0.0208,0.36022 0.0894,-3.13601 c -3.1392,0.55929 -3.39309,1.16272 -6.97131,2.14062 -4.37558,1.19609 -3.891,0.80959 -5.54479,2.42178 3.18111,2.44962 8.9336,-0.935 12.40599,-1.78661 z m 15.7328,-3.06098 c 4.13949,-1.80171 4.46821,-3.3577 7.9757,-4.4245 l -0.74531,-3.84429 c -3.01847,1.3746 -5.903,3.92257 -7.95267,5.94007 z M 46.59127,149.8085 c -0.463197,2.29711 5.382613,6.97928 6.383585,8.04739 2.481297,2.64699 2.089714,3.78241 5.797902,5.58412 -0.72468,-2.87613 -0.3156,-2.6888 -2.324383,-4.6851 -0.658423,-0.65391 -1.278006,-0.98602 -1.939925,-1.67781 z m -6.928908,-18.53322 c -0.381494,-0.52077 -0.266982,-0.1289 -0.900994,-2.15607 -0.165312,-0.52941 -0.468419,-1.67291 -0.641597,-2.2854 -0.891399,-3.15503 -1.275892,-1.98931 -0.372216,-5.02151 -6.318497,-1.5283 -1.877977,-0.97 -3.410797,0.9459 3.24291,10.37961 0.08819,4.60848 3.871595,9.5413 z m 119.109418,35.43293 c 0.87037,-0.94763 0.92008,-1.36592 1.6159,-2.07613 0.76108,-0.77678 0.90798,-0.69127 1.93908,-1.65167 2.14841,-2.00071 0.7681,-1.87442 3.8777,-2.83831 -0.71579,-1.53169 -0.29669,-3.61382 -4.31959,-0.44242 l -2.01821,1.74223 c -0.75628,0.53968 -1.54069,0.94287 -2.12679,1.32627 z m -18.06483,10.39799 1.4951,0.32028 c 3.11482,-0.2576 6.98811,-2.29658 5.93122,-3.54178 -0.87499,-1.33661 2.8284,-4.1946 -3.90041,-0.36611 -3.56588,2.02889 -2.27151,0.5589 -3.52591,3.58761 z M 46.550172,146.70398 42.84537,140.12919 c -1.256206,-1.85458 -0.06131,-1.42889 -2.402099,-2.3532 -0.703403,1.74812 -2.172688,-2.74969 1.387793,5.12011 1.60729,3.55258 0.259291,3.76968 4.719108,3.80788 z m 42.103885,-112.271698 0.0854,0.944809 c 2.5164,-0.04688 4.37539,-0.636411 6.13061,-0.919409 5.938093,-0.957192 -0.79961,-0.241195 5.153303,-2.340998 l -2.066433,-1.460888 c -3.22897,2.031188 -1.02898,1.41739 -4.63229,2.192196 -3.44858,0.741715 -1.70829,-0.03609 -4.6706,1.58429 z M 119.29365,32.55688 c 0.21971,3.008806 0.30152,2.320431 2.82103,3.131114 0.80327,0.258304 4.75417,0.94802 5.78629,1.135909 -0.13751,-0.22232 -0.9749,-2.402522 -1.19711,-2.867307 z M 65.424377,50.925595 c 2.11,-0.693914 2.3241,-0.8763 4.3245,-2.027696 2.94188,-1.693016 2.23428,-0.482 2.94019,-3.415912 -3.08049,-0.869985 -6.50081,1.682009 -7.26469,5.443608 z m 6.00428,82.607115 c 0.21022,0.14767 0.4929,0.16309 0.58932,0.49688 0.112,0.3881 1.09008,0.92831 1.1044,0.93811 1.69298,1.1406 0.2206,0.67201 2.22568,0.96598 -0.70189,-3.01618 -4.06058,-7.77709 -6.74599,-9.06198 1.56001,5.03798 2.34209,3.48569 2.82659,6.66101 z m 102.490623,9.96258 c -2.91461,2.00579 -0.95761,1.0474 -2.16602,3.02659 -0.95698,1.56852 -1.12328,1.16593 -2.15911,3.25081 4.66253,1.73969 2.12161,0.8914 5.2069,-2.7946 -0.86099,-3.9092 -1.3824,-1.21609 -0.88177,-3.4828 z m -36.60111,31.62321 1.61529,-0.90491 c 1.1629,-1.26061 0.13459,-1.2217 2.361,-1.7732 -0.79678,-1.2132 -0.54948,-0.9247 -1.41058,-1.784 l -3.91072,1.82499 c -1.26209,0.8376 -0.8589,0.6573 -1.58838,1.40762 1.66497,2.3004 -0.39031,0.53231 2.93339,1.2295 z m 26.17748,-22.09602 c 0.74352,-0.32639 0.80031,-0.0951 1.96713,-0.82179 0.94667,-3.32539 2.16037,-1.94561 1.08288,-5.47889 -1.79821,0.40209 -2.88459,2.56469 -3.97908,3.72558 z m -5.78079,-94.952078 c -1.61791,-2.523595 -2.80279,-4.288118 -7.16799,-4.501408 1.31431,2.83651 2.91589,4.6597 7.16799,4.501408 z m 5.61901,5.283377 c -3.66152,-2.903783 -1.28701,-3.220897 -6.34129,-3.34719 0.83859,1.371811 1.42678,2.488318 2.70118,3.720007 2.26639,2.190607 2.18119,1.131993 3.64011,-0.372817 z m 10.58541,80.141511 c 3.45158,-0.44848 3.64039,-0.3441 3.58687,-4.40309 l -2.849,-1.0565 z m 7.3448,-52.43318 -1.34673,0.464889 c -0.65599,5.307401 -0.16408,3.789892 2.25693,4.6276 0.0321,-0.06339 3.49589,-0.130988 -0.9102,-5.092489 z m -15.23192,63.1777 c -0.29231,1.18519 -0.29341,0.7596 -0.56409,1.20498 -1.26761,2.09071 0.16189,-1.03801 -1.59579,2.60012 l 3.94508,-0.24152 c 0.55262,-2.86261 -0.19661,0.0502 1.29,-2.44351 l 0.63891,-1.73189 c 0.008,-0.15681 -0.0846,-0.22938 -0.13031,-0.34241 -2.34171,1.51063 -0.23509,0.44461 -3.5838,0.95423 z m -57.0225,25.9285 c 1.73541,1.37777 -0.33779,0.50429 2.03341,0.84017 0.7947,0.11282 3.54259,0.4656 5.31798,-0.84017 -2.80278,-2.17311 -4.77527,-1.95171 -7.35139,0 z m -79.467081,-54.72342 1.037696,0.86992 c 1.054205,-0.4571 2.465493,1.58189 1.456478,-3.06113 -0.910484,-4.18927 -0.722983,-1.59967 -2.398889,-2.08058 z m 133.953071,27.57759 c -2.47869,1.10663 -2.38848,2.04883 -3.79709,2.94132 -1.17799,0.7463 -3.44551,0.47889 -3.11689,2.9537 1.31501,0.57341 -0.37709,1.23501 1.77281,0.1978 z M 72.892267,86.296187 c 1.3899,-2.795305 2.33288,-3.118906 3.67051,-5.685682 -2.05091,0.619689 -2.53983,0.733883 -3.5958,2.158294 -2.1894,2.953702 -0.38311,2.941706 -0.0747,3.527388 z m 70.727603,84.763823 c 2.8375,-1.43881 2.45251,-0.49403 2.79051,-4.21623 -2.96111,1.55441 -3.95302,0.97741 -2.79051,4.21623 z m -80.181103,4.6186 4.15428,0.89708 c -0.16326,-0.25019 -0.79149,-1.38381 -0.87489,-1.54401 l -0.48468,-1.07727 c -0.0943,-0.14132 0.46528,-0.32043 -1.57032,-1.29251 z m 17.0741,-134.550324 c 1.77309,0.840811 -2.25231,1.125926 2.33401,0.644314 3.394,-0.356518 0.89658,0.5588 1.89421,-1.541393 -0.77841,-0.309598 1.12839,-2.848222 -4.22822,0.897079 z M 36.54938,115.89639 c -1.570919,0.61839 -4.907526,0.5103 -1.48851,3.12269 1.809397,-1.35597 1.054311,0.17092 1.48851,-3.12269 z m 32.651277,54.2423 c 0.94971,2.94559 -0.0115,1.79169 2.93021,2.78162 -1.12191,-4.18571 0.60981,-2.39822 -2.93021,-2.78162 m 0,0 c -1.37848,-3.71549 -0.12869,-1.4514 -2.17668,-3.04468 l -0.26221,2.89518 z M 147.29998,49.2644 l -0.86833,2.3477 c 2.63662,0.153 1.68053,0.258093 3.41161,-0.703897 z" />
      <path
         id="path70"
         style="fill:#000000;fill-opacity:1;fill-rule:nonzero;stroke:#ffffff;stroke-width:0.0762;stroke-linecap:butt;stroke-linejoin:miter;stroke-miterlimit:22.9256;stroke-dasharray:none;stroke-opacity:1"
         d="m 124.96727,127.2026 c -0.36201,0.25341 -0.82352,0.73301 -1.38461,1.43888 -0.56099,0.70591 -1.1042,1.45711 -1.62899,2.2534 -0.52479,0.7964 -0.97741,1.53861 -1.35749,2.22642 -0.38012,0.68781 -0.57012,1.12208 -0.57012,1.30309 0.65161,0.10862 1.2579,-0.0905 1.81899,-0.59729 0.56113,-0.5068 1.06793,-1.14931 1.52051,-1.92772 0.4524,-0.77819 0.81431,-1.60179 1.08592,-2.47057 0.2715,-0.86872 0.44337,-1.61082 0.51579,-2.22621 z m 15.041,0 c -0.36202,0.25341 -0.82359,0.73301 -1.38472,1.43888 -0.56099,0.70591 -1.10409,1.45711 -1.62888,2.2534 -0.5249,0.7964 -0.97751,1.53861 -1.3576,2.22642 -0.38011,0.68781 -0.57012,1.12208 -0.57012,1.30309 0.65161,0.10862 1.2579,-0.0905 1.81903,-0.59729 0.56109,-0.5068 1.06789,-1.14931 1.52047,-1.92772 0.4524,-0.77819 0.81442,-1.60179 1.08592,-2.47057 0.2715,-0.86872 0.44341,-1.61082 0.5159,-2.22621 z m 0.17808,11.4215 c 0.26011,-0.9525 0.56272,-1.954 0.90781,-3.0051 0.2818,-0.85841 0.57619,-1.70981 0.88289,-2.5545 -0.44189,0.73219 -0.94428,1.42981 -1.50738,2.093 -0.81432,0.9592 -1.7284,1.60178 -2.742,1.92761 -0.72401,0.18097 -1.3576,0.2353 -1.90052,0.16288 -0.543,-0.0725 -1.14028,-0.2534 -1.7919,-0.543 -0.18098,0.36202 -0.38008,0.89592 -0.59729,1.60179 -0.2172,0.70591 -0.38008,1.42092 -0.4887,2.14482 -0.10859,0.724 -0.14471,1.36659 -0.10859,1.92761 0.0362,0.5612 0.2534,0.87789 0.65169,0.95028 0.57912,0.10862 1.40261,-0.19911 2.4705,-0.92308 1.068,-0.7239 2.18112,-1.67421 3.3395,-2.85073 0.29581,-0.30039 0.59052,-0.61108 0.88399,-0.93158 z m 16.32882,-21.79281 c 1.5204,0.2897 2.69688,0.5612 3.5295,0.8145 0.90498,0.32589 1.5385,0.72411 1.90049,1.19471 0.2172,0.32579 0.4524,0.77819 0.7059,1.35749 0.0724,0.28949 0.14472,0.57919 0.21721,0.86871 0.0723,0.28971 0.12668,0.5611 0.16281,0.8145 0,0.54299 -0.16281,0.85079 -0.4886,0.92311 -0.5431,-0.724 -1.62902,-1.30312 -3.25801,-1.73761 -2.46161,-0.54299 -4.3259,-0.77829 -5.5929,-0.7058 -0.28949,0.43438 -0.57919,0.86868 -0.86872,1.3032 -0.2897,0.43431 -0.57919,0.86868 -0.86889,1.3032 -1.77369,3.04069 -3.2941,6.15389 -4.5611,9.3394 -1.267,3.2942 -2.2625,6.47979 -2.9864,9.55678 -0.65158,3.07693 -0.85069,5.55661 -0.59729,7.43892 0.2534,1.99101 1.08588,3.0589 2.4977,3.20368 -0.543,0.47061 -1.33932,0.63352 -2.38912,0.48871 -0.94117,-0.10869 -1.91858,-0.66968 -2.93218,-1.68328 -1.0136,-0.94121 -1.64712,-2.35292 -1.90052,-4.23531 -0.098,-0.95532 -0.0841,-2.02262 0.0417,-3.2016 -0.104,0.0906 -0.20828,0.18041 -0.3132,0.26938 -1.19457,1.0136 -2.37098,1.84623 -3.5294,2.4977 -0.54289,0.2897 -1.12218,0.39832 -1.73757,0.32583 -0.61531,-0.0723 -1.2308,-0.2443 -1.84623,-0.5158 -0.61538,-0.27153 -1.17637,-0.58822 -1.68327,-0.95021 -0.5067,-0.36201 -0.92312,-0.7059 -1.24891,-1.03169 -0.68781,-0.72401 -1.06789,-1.69242 -1.14021,-2.90502 -0.0251,-0.4184 -0.0251,-0.84879 0,-1.29078 -0.14238,0.1693 -0.28699,0.33718 -0.43371,0.50348 -1.08588,1.23081 -2.22627,2.35289 -3.42088,3.36649 -1.19461,1.0136 -2.37099,1.84623 -3.5294,2.4977 -0.543,0.2897 -1.12219,0.39832 -1.73761,0.32583 -0.61538,-0.0723 -1.2308,-0.2443 -1.8463,-0.5158 -0.61528,-0.27153 -1.17641,-0.58822 -1.6832,-0.95021 -0.5067,-0.36201 -0.92308,-0.7059 -1.24887,-1.03169 -0.68782,-0.72401 -1.06793,-1.69242 -1.14022,-2.90502 -0.067,-1.12321 0.0443,-2.33179 0.3344,-3.62561 -0.29951,-0.0274 -0.6102,-0.0767 -0.93179,-0.1482 -0.65151,-0.14478 -1.2579,-0.35299 -1.81899,-0.62449 -0.56113,-0.27139 -0.87793,-0.58829 -0.95021,-0.9502 -0.18101,-0.61539 -0.25351,-1.276 -0.21731,-1.98191 0.0363,-0.70587 0.0363,-1.42088 0,-2.14489 -1.91851,2.0996 -3.5657,4.3711 -4.94118,6.81461 -1.37562,2.44348 -2.46161,5.29421 -3.2579,8.55218 -0.10873,0.39811 -0.40732,0.60632 -0.896033,0.62442 -0.4887,0.0181 -1.00449,-0.0815 -1.5476,-0.29859 -0.54289,-0.21721 -1.0136,-0.5068 -1.41167,-0.86882 -0.39822,-0.36199 -0.56113,-0.74211 -0.4887,-1.14029 0.32578,-1.95481 0.78729,-4.00011 1.38458,-6.13579 0.59728,-2.13593 1.29409,-4.24441 2.09049,-6.32601 0.796433,-2.08139 1.647123,-4.0633 2.552103,-5.94572 0.90501,-1.88238 1.7919,-3.5657 2.66072,-5.04987 0.18101,-0.32583 0.4343,-0.5249 0.7602,-0.59722 0.17748,-0.0395 0.36068,-0.0521 0.5491,-0.0378 -0.48821,-0.22941 -1.06941,-0.43413 -1.74371,-0.6139 -2.46151,-0.543 -4.3258,-0.7783 -5.592803,-0.7058 -0.28959,0.43437 -0.57919,0.86868 -0.86871,1.30319 -0.28967,0.43431 -0.5793,0.86868 -0.8689,1.3032 -1.77369,3.0407 -3.2942,6.15389 -4.5612,9.3394 -1.267,3.2942 -2.2624,6.47979 -2.9863,9.55678 -0.65169,3.07693 -0.85079,5.55661 -0.5974,7.43892 0.25351,1.99101 1.086,3.0589 2.49781,3.20368 -0.54299,0.47061 -1.33928,0.63352 -2.38918,0.48871 -0.94122,-0.10869 -1.91852,-0.66968 -2.93212,-1.68328 -1.0137,-0.94121 -1.64719,-2.35292 -1.90059,-4.23531 -0.14481,-1.41182 -0.0452,-3.068 0.2987,-4.96842 0.34399,-1.90048 0.91408,-4.06347 1.71048,-6.48878 0.79643,-2.42542 1.69231,-4.7964 2.68771,-7.1132 0.9955,-2.31679 2.0725,-4.5974 3.23091,-6.8417 0.0723,-0.18101 0.16288,-0.35299 0.27139,-0.5159 0.10859,-0.16291 0.19922,-0.33479 0.27161,-0.5158 -0.18101,0 -0.40732,0.0181 -0.67871,0.0543 -0.27161,0.0361 -0.5702,0.0905 -0.89599,0.16281 -0.32582,0.0725 -0.63352,0.14489 -0.92311,0.2172 -0.2897,0.0725 -0.57919,0.16288 -0.86879,0.27161 -0.28959,0.0723 -0.5249,0.1718 -0.7059,0.29859 -0.18101,0.12668 -0.3077,0.2262 -0.38012,0.29859 -0.21717,0.36209 -0.41617,0.47071 -0.59729,0.32579 -0.2534,-0.18097 -0.47061,-0.41617 -0.65158,-0.70587 -0.0723,-0.1809 -0.16291,-0.35292 -0.27154,-0.51573 -0.10858,-0.16298 -0.19907,-0.33489 -0.27149,-0.51597 -0.0724,-0.18091 -0.12658,-0.34392 -0.16288,-0.4887 -0.0362,-0.14471 -0.0723,-0.2533 -0.10862,-0.32572 -0.14478,-0.39818 -0.10858,-0.7602 0.10862,-1.08599 0.0724,-0.18112 0.18108,-0.32579 0.32579,-0.43441 0.14482,-0.10859 0.3078,-0.21721 0.48881,-0.3259 1.12208,-0.4343 2.35289,-0.7601 3.69228,-0.9773 0.65161,-0.0723 1.26693,-0.14478 1.84612,-0.2172 0.57919,-0.0724 1.12229,-0.14478 1.62909,-0.21721 0.10852,0 0.2352,0 0.38012,0 0.14478,0 0.30769,-0.0181 0.48867,-0.0543 1.1945,-1.70138 2.38911,-3.20368 3.58372,-4.50681 0.36199,-0.36198 0.88689,-0.45247 1.574593,-0.27157 0.5793,0.10859 1.19469,0.45248 1.8463,1.0317 0.61539,0.57919 0.97741,1.0861 1.08599,1.52047 0.10862,0.50673 0.018,0.85062 -0.27149,1.0317 -0.28971,0.36202 -0.543,0.67871 -0.76021,0.9501 -0.2172,0.27161 -0.39818,0.49781 -0.5431,0.67871 1.52051,0.2897 2.69692,0.5612 3.52951,0.8145 0.90508,0.32589 1.5385,0.72411 1.90059,1.19471 0.2171,0.32579 0.4524,0.7782 0.70591,1.35749 0.0723,0.28949 0.1446,0.57919 0.2171,0.86872 0.0724,0.2897 0.12678,0.56109 0.16291,0.81449 0,0.25569 -0.0363,0.45921 -0.10841,0.61059 0.13719,0.10802 0.25492,0.2214 0.35271,0.33972 0.34389,0.41628 0.38908,0.89588 0.13568,1.43888 -0.4705,1.0136 -0.97737,2.07239 -1.5203,3.17652 -0.5431,1.10419 -1.10409,2.36209 -1.68338,3.7738 0.5431,-0.76013 1.03169,-1.46611 1.46617,-2.11772 0.39811,-0.54289 0.75114,-1.0679 1.05883,-1.57459 0.30769,-0.5068 0.4977,-0.8145 0.57009,-0.92312 0.3259,-0.50687 0.59729,-0.78729 0.8145,-0.84169 0.2172,-0.0542 0.57918,0.0272 1.08609,0.24441 1.0135,0.39821 1.7737,0.68781 2.2805,0.86878 0.5068,0.18101 0.85072,0.41631 1.0317,0.70591 0.18101,0.28959 0.2353,0.70591 0.16291,1.2489 -0.0724,0.543 -0.16291,1.37552 -0.27139,2.4977 -0.18652,1.3982 -0.23961,2.74299 -0.15942,4.03451 0.24952,-0.69899 0.53802,-1.4103 0.86532,-2.13402 0.68768,-1.52037 1.45691,-2.95018 2.3077,-4.28967 0.85058,-1.33932 1.7465,-2.51591 2.68778,-3.5294 0.94121,-1.0136 1.82809,-1.7556 2.66072,-2.22631 0.5067,-0.2533 0.9773,-0.38919 1.41168,-0.40732 0.43451,-0.0181 0.88702,0.0544 1.35752,0.21721 0.47061,0.16301 0.95028,0.39832 1.43898,0.7059 0.4887,0.3078 1.04069,0.64269 1.65601,1.00461 0.86889,0.543 1.267,1.23091 1.19472,2.06329 0,0.39832 -0.15392,1.10419 -0.46161,2.1178 -0.3077,1.0136 -0.74211,2.07242 -1.3032,3.17651 -0.56109,1.10398 -1.2489,2.13568 -2.06339,3.0951 -0.81443,0.9592 -1.72841,1.60178 -2.74201,1.92761 -0.72411,0.18097 -1.35759,0.2353 -1.90062,0.16288 -0.54289,-0.0725 -1.14029,-0.2534 -1.7918,-0.543 -0.18108,0.36202 -0.38018,0.89592 -0.59728,1.60179 -0.21721,0.70591 -0.38012,1.42092 -0.48881,2.14482 -0.10848,0.724 -0.14471,1.36659 -0.10848,1.92761 0.0362,0.5612 0.2534,0.87789 0.65168,0.95028 0.57909,0.10862 1.40261,-0.19911 2.47051,-0.92308 1.06789,-0.7239 2.18108,-1.67421 3.33939,-2.85073 1.15849,-1.17637 2.2987,-2.5068 3.42089,-3.99108 1.12222,-1.4841 2.0272,-2.93211 2.71501,-4.34389 0.0717,-0.0718 0.15459,-0.12132 0.24871,-0.14863 0.39349,-0.73437 0.80818,-1.44508 1.24449,-2.13197 0.85069,-1.33932 1.7465,-2.51591 2.68782,-3.5294 0.94117,-1.0136 1.82809,-1.7556 2.66068,-2.22631 0.5067,-0.2533 0.9773,-0.38919 1.41171,-0.40732 0.43448,-0.0181 0.88699,0.0544 1.3576,0.21721 0.4705,0.16301 0.9502,0.39832 1.43891,0.7059 0.48866,0.3078 1.04069,0.64269 1.65597,1.00461 0.86889,0.543 1.267,1.23091 1.19472,2.06329 0,0.19519 -0.0369,0.46429 -0.11081,0.80719 0.88082,-1.99757 1.8227,-3.96797 2.82572,-5.91118 0.0724,-0.18101 0.16287,-0.35299 0.27149,-0.5159 0.10859,-0.16291 0.19918,-0.33479 0.2715,-0.5158 -0.18101,0 -0.40732,0.0181 -0.67871,0.0543 -0.2716,0.0361 -0.57019,0.0905 -0.89591,0.16281 -0.32579,0.0725 -0.63359,0.14489 -0.92319,0.2172 -0.28959,0.0725 -0.57912,0.16288 -0.86878,0.27161 -0.28953,0.0723 -0.52494,0.1718 -0.70581,0.29859 -0.18111,0.12668 -0.30779,0.2262 -0.38022,0.29859 -0.2171,0.36209 -0.41621,0.47071 -0.59718,0.32579 -0.25351,-0.18097 -0.47071,-0.41617 -0.65162,-0.70587 -0.0724,-0.18091 -0.16298,-0.35292 -0.2715,-0.51573 -0.10858,-0.16298 -0.1991,-0.33489 -0.27149,-0.51597 -0.0724,-0.18091 -0.12669,-0.34392 -0.16299,-0.4887 -0.0362,-0.14471 -0.0723,-0.2533 -0.10851,-0.32572 -0.14482,-0.39818 -0.10859,-0.76021 0.10851,-1.08599 0.0724,-0.18112 0.18108,-0.32579 0.3259,-0.43441 0.14478,-0.10859 0.30769,-0.21721 0.4887,-0.3259 1.12208,-0.4343 2.35289,-0.7601 3.69239,-0.9773 0.65151,-0.0723 1.26689,-0.14478 1.84608,-0.21721 0.57923,-0.0724 1.12222,-0.14478 1.62902,-0.2172 0.10859,0 0.23531,0 0.38009,0 0.14481,0 0.30772,-0.0181 0.4887,-0.0543 1.19461,-1.70138 2.38922,-3.20368 3.5838,-4.50681 0.36202,-0.36198 0.88681,-0.45247 1.57462,-0.27157 0.57919,0.10859 1.19458,0.45248 1.8462,1.0317 0.61549,0.57919 0.97751,1.0861 1.08599,1.52047 0.10869,0.50673 0.018,0.85062 -0.2715,1.0317 -0.2896,0.36202 -0.54289,0.67871 -0.7602,0.9501 -0.21721,0.27161 -0.39818,0.49781 -0.543,0.67871 z M 61.871377,136.8679 c -0.61542,0.5067 -1.2308,1.19451 -1.84612,2.0634 -0.61549,0.86868 -1.13129,1.79179 -1.5477,2.7692 -0.41618,0.97741 -0.6967,1.94571 -0.84159,2.90509 -0.144817,0.95931 -0.08149,1.79179 0.19011,2.4977 0.2715,0.70591 0.79629,1.21261 1.57459,1.5204 0.7783,0.3077 1.90969,0.2986 3.39379,-0.0272 1.44801,-0.36198 2.95032,-0.94121 4.50681,-1.7375 1.55659,-0.7965 2.98651,-1.71051 4.2896,-2.7421 1.3033,-1.03181 2.3712,-2.10859 3.20368,-3.23081 0.83273,-1.12229 1.2489,-2.17198 1.2489,-3.1495 0,-1.04979 -0.35277,-1.93657 -1.05879,-2.66047 -0.70591,-0.72411 -1.59268,-1.36662 -2.66068,-1.92782 -1.0679,-0.5611 -2.2443,-1.06779 -3.5294,-1.5203 -1.2851,-0.45251 -2.51591,-0.94121 -3.69242,-1.466 -1.17638,-0.52501 -2.21717,-1.13129 -3.12209,-1.8191 -0.90501,-0.68781 -1.50241,-1.5385 -1.79211,-2.5521 -0.39811,-1.37559 -0.24419,-2.94118 0.46161,-4.69689 0.70591,-1.7557 1.74671,-3.4842 3.1223,-5.18551 1.37551,-1.70148 2.9864,-3.24898 4.8327,-4.6427 1.84609,-1.39368 3.70131,-2.39818 5.5656,-3.0136 1.86418,-0.61539 3.61999,-0.7421 5.26711,-0.38008 1.64698,0.36198 2.99547,1.4479 4.0453,3.2579 0.2533,-0.54293 0.58819,-1.15831 1.0045,-1.84612 0.41628,-0.68778 0.82349,-1.35749 1.22178,-2.00911 0.39811,-0.65158 0.78729,-1.23077 1.16731,-1.73768 0.38011,-0.50669 0.67881,-0.83241 0.89609,-0.97729 0.32582,-0.2171 0.85061,-0.20811 1.57462,0.0272 0.72397,0.2353 1.40268,0.57919 2.0363,1.03169 0.63338,0.45251 1.12208,0.95021 1.46597,1.49321 0.34393,0.54299 0.29863,0.9774 -0.13578,1.30309 -0.68781,0.61549 -1.46611,1.49331 -2.33479,2.63359 -0.86882,1.14032 -1.72861,2.40732 -2.5793,3.801 -0.85062,1.39372 -1.65601,2.84159 -2.41621,4.3439 -0.76031,1.50241 -1.38469,2.91412 -1.87339,4.23541 -0.4887,1.32119 -0.7964,2.47971 -0.92312,3.47511 -0.12668,0.9955 0.009,1.69227 0.40722,2.0906 -0.36192,0.32579 -0.83253,0.4434 -1.41171,0.35288 -0.5792,-0.0904 -1.14029,-0.34389 -1.68332,-0.7602 -0.54299,-0.41628 -1.00457,-0.9592 -1.38458,-1.62888 -0.38019,-0.66972 -0.5159,-1.42092 -0.40732,-2.25351 0.10862,-1.0136 0.37102,-2.13579 0.78733,-3.36649 0.41638,-1.23081 0.82359,-2.47061 1.22178,-3.71951 0.39821,-1.24891 0.69691,-2.44352 0.89602,-3.5838 0.199,-1.14032 0.13567,-2.14482 -0.19012,-3.01371 -0.18101,-0.4705 -0.66068,-0.60628 -1.43898,-0.40718 -0.77822,0.19908 -1.7104,0.63349 -2.79632,1.30327 -1.0861,0.66961 -2.23538,1.51123 -3.44809,2.52483 -1.2126,1.0136 -2.34389,2.09049 -3.39369,3.23078 -1.04983,1.14031 -1.94571,2.28959 -2.68792,3.44811 -0.74199,1.15828 -1.16741,2.19008 -1.27599,3.09499 -0.10859,0.90502 0.2262,1.65612 1.0046,2.25341 0.7783,0.59739 1.7919,1.17658 3.0408,1.73771 1.24891,0.56099 2.61539,1.14018 4.0996,1.73757 1.48421,0.59722 2.85069,1.32123 4.0996,2.17181 1.2489,0.85079 2.2715,1.90059 3.06789,3.14942 0.7964,1.24887 1.14032,2.7964 1.03159,4.6427 -0.0362,0.90487 -0.37098,1.88228 -1.00449,2.93208 -0.63349,1.04979 -1.47511,2.09962 -2.52491,3.14942 -1.04979,1.04979 -2.26239,2.0634 -3.63809,3.0408 -1.37548,0.97737 -2.84159,1.85519 -4.39829,2.63349 -1.55649,0.77819 -3.14932,1.42088 -4.7783,1.92761 -1.62892,0.5068 -3.20361,0.81449 -4.72402,0.92308 -1.30319,0.0724 -2.40728,0.0181 -3.31219,-0.16281 -0.90498,-0.18108 -1.665286,-0.45258 -2.280601,-0.8146 -0.724006,-0.4706 -1.248905,-1.04979 -1.574695,-1.73757 -0.325897,-0.68781 -0.488704,-1.45701 -0.488704,-2.30773 0,-0.85069 0.126718,-1.74667 0.380119,-2.68778 0.2534,-0.94121 0.597287,-1.88242 1.031698,-2.8237 0.7239,-1.55649 1.58369,-3.0407 2.579193,-4.45252 0.9955,-1.41167 2,-2.60628 3.01371,-3.58369 0.18091,-0.14478 0.39808,-0.2081 0.65147,-0.19001 0.25351,0.018 0.47061,0.0905 0.65162,0.2171 0.18101,0.12683 0.29859,0.2805 0.35288,0.46161 0.0544,0.18091 -0.009,0.32579 -0.18997,0.43441 z" />
      <g
         id="g72"
         transform="matrix(0.35277777,0,0,-0.35277777,-236.97683,368.92998)">
        <path
           id="path74"
           style="fill:#000000;fill-opacity:1;fill-rule:nonzero;stroke:none"
           d="m 860.0947,767.6135 c 3.4498,-0.3991 7.0724,0.2498 10.8675,1.9466 3.7947,1.6971 7.5651,3.9929 11.3108,6.8879 3.7457,2.8947 7.4174,6.2637 11.0151,10.1069 3.5978,3.8432 6.9248,7.7114 9.9802,11.6045 3.0558,3.8931 5.7912,7.6612 8.2061,11.3049 2.4151,3.6436 4.3619,6.8127 5.8405,9.5079 0.7883,1.4976 1.7248,2.3959 2.8091,2.6955 1.0843,0.2993 2.0205,0.2245 2.8094,-0.2248 0.7886,-0.449 1.3059,-1.2229 1.5523,-2.3207 0.2463,-1.0982 -0.0247,-2.346 -0.813,-3.7435 -5.2243,-8.9841 -10.6458,-17.2941 -16.2641,-24.9307 -5.6188,-7.6365 -11.4097,-14.15 -17.3732,-19.5403 -5.9636,-5.3904 -12.0751,-9.4581 -18.334,-12.2032 -6.2594,-2.745 -12.6912,-3.7185 -19.2954,-2.9199 -4.2386,0.3994 -7.7131,1.8218 -10.4235,4.2675 -2.7108,2.4455 -4.781,5.5899 -6.2102,9.4332 -1.4292,3.8432 -2.2671,8.2604 -2.5135,13.2514 -0.2463,4.9912 0.0244,10.2818 0.8133,15.8717 0.887,6.7881 2.4642,13.7755 4.7313,20.9628 2.2669,7.1872 5.0026,14.1749 8.206,20.9628 3.2037,6.7881 6.8505,13.0767 10.9412,18.8665 4.0909,5.7898 8.4523,10.6311 13.0856,14.5242 4.6326,3.8931 9.4379,6.6381 14.4158,8.2355 4.9777,1.597 9.98,1.5471 15.0072,-0.15 3.1544,-0.9981 5.3966,-3.1691 6.7275,-6.5132 1.3306,-3.3443 1.9959,-7.3372 1.9959,-11.9789 0,-4.6417 -0.542,-9.7075 -1.6263,-15.1979 -1.0842,-5.4902 -2.4644,-10.9304 -4.14,-16.3211 -1.6755,-5.3903 -3.5484,-10.5063 -5.6185,-15.3476 -2.0699,-4.8413 -4.0904,-8.9592 -6.0619,-12.3531 -0.5916,-0.8983 -1.7745,-1.2977 -3.5487,-1.1979 -1.7745,0.0998 -3.4744,0.5989 -5.101,1.4975 -1.6265,0.8983 -2.8584,2.0713 -3.6963,3.5187 -0.838,1.4473 -0.5667,3.0197 0.8132,4.7165 0.9856,1.2977 2.3162,3.6437 3.992,7.0376 1.6759,3.3939 3.4005,7.2621 5.175,11.6045 1.7742,4.3421 3.4007,8.884 4.879,13.6256 1.4788,4.7415 2.5137,9.1088 3.105,13.1017 0.5916,3.9929 0.5916,7.287 0,9.8824 -0.5913,2.5954 -2.0698,3.9929 -4.4356,4.1927 -2.3655,0.0998 -5.0516,-1.2727 -8.0581,-4.1179 -3.0064,-2.8448 -6.0865,-6.6381 -9.2409,-11.3796 -3.1541,-4.7416 -6.2345,-10.1818 -9.2412,-16.3211 -3.0062,-6.139 -5.7169,-12.4529 -8.1318,-18.9414 -2.4151,-6.4885 -4.3866,-12.8769 -5.9142,-19.1659 -1.5281,-6.2886 -2.3411,-11.9287 -2.4398,-16.92 -0.0986,-4.9909 0.6407,-9.1085 2.2179,-12.3528 1.5772,-3.2442 4.2386,-5.0661 7.9843,-5.4655" />
        <path
           id="path76"
           style="fill:#000000;fill-opacity:1;fill-rule:nonzero;stroke:none"
           d="m 953.676,794.4369 c 0.7883,0.0998 1.3552,-0.1746 1.7002,-0.8234 0.345,-0.6489 0.5173,-1.3975 0.5173,-2.2459 0,-0.8487 -0.1723,-1.6223 -0.5173,-2.321 -0.345,-0.6988 -0.7639,-1.0483 -1.2569,-1.0483 -2.2671,-0.2993 -4.3863,-0.3991 -6.3575,-0.2993 -1.9715,0.0998 -4.288,0.599 -6.9494,1.4973 -0.493,-0.9981 -1.1336,-2.3707 -1.9222,-4.1177 -0.7883,-1.7469 -1.7495,-3.5435 -2.8831,-5.3903 -1.1336,-1.8468 -2.4642,-3.6437 -3.9923,-5.3904 -1.5276,-1.747 -3.2281,-3.1195 -5.101,-4.1179 -1.5769,-0.8983 -3.573,-1.1729 -5.9882,-0.8234 -2.4148,0.3495 -4.8296,1.0732 -7.2447,2.171 -2.4152,1.0982 -4.559,2.4956 -6.4319,4.1927 -1.8728,1.6969 -3.0557,3.5436 -3.5484,5.5401 -0.7886,2.6952 -0.9365,5.6401 -0.4436,8.8344 0.493,3.1941 1.2816,6.3136 2.3658,9.3583 1.0843,3.0444 2.3902,5.8397 3.9183,8.3852 1.5276,2.5452 2.9815,4.4668 4.3614,5.7645 0.493,0.4992 1.0352,0.9485 1.6265,1.3476 0.5916,0.3994 1.1336,0.8487 1.6263,1.3479 -0.394,2.0962 -0.6407,4.2174 -0.7393,6.3635 -0.0984,2.1461 0.3946,4.2177 1.4786,6.2141 0.8872,1.597 2.7357,2.6204 5.5448,3.0694 2.8091,0.4493 5.7662,0.2247 8.8713,-0.6738 3.1051,-0.8983 5.9389,-2.5455 8.5017,-4.9411 2.5628,-2.3958 4.0907,-5.5902 4.5836,-9.5831 0.4929,-3.6933 0.4683,-7.2371 -0.074,-10.631 -0.5423,-3.394 -1.2075,-6.8877 -1.9959,-10.4814 0.887,-0.599 2.3409,-1.0483 4.3614,-1.3476 2.0211,-0.2994 4.017,-0.2495 5.9885,0.1496 z m -37.5554,-17.2193 c 3.8441,2.2958 6.6779,4.9913 8.5017,8.0855 1.8235,3.0946 3.4251,6.3888 4.805,9.8825 -3.4498,2.3958 -6.1112,5.4405 -7.9841,9.1338 -0.4929,-0.4989 -1.1335,-1.8468 -1.9221,-4.0428 -0.7883,-2.196 -1.5523,-4.7166 -2.2918,-7.5614 -0.7393,-2.8452 -1.2566,-5.69 -1.5523,-8.5349 -0.2956,-2.8451 -0.148,-5.1658 0.4436,-6.9627 z m 15.5248,26.5028 c 0.5916,1.3975 0.9856,3.0696 1.1829,5.0162 0.197,1.9465 0.2217,3.8931 0.074,5.8397 -0.1483,1.9465 -0.3946,3.6935 -0.7396,5.2406 -0.3449,1.5472 -0.7146,2.6703 -1.1086,3.369 -1.5775,-1.9964 -2.2921,-4.7415 -2.1441,-8.2355 0.148,-3.4937 1.0596,-7.2371 2.7354,-11.23" />
        <path
           id="path78"
           style="fill:#000000;fill-opacity:1;fill-rule:nonzero;stroke:none"
           d="m 968.1307,754.437 c -0.394,-0.0998 -0.9116,-0.1247 -1.5522,-0.0749 -0.641,0.0499 -1.4539,0.1248 -2.4398,0.2245 -1.8729,0 -4.337,1.2479 -7.3928,3.7435 -3.0557,2.3958 -5.2242,6.1891 -6.5055,11.3797 -0.0986,0.4991 -0.1723,1.0482 -0.2217,1.6472 -0.0496,0.5989 -0.0742,1.1979 -0.0742,1.7969 -0.197,3.6932 0.1236,8.0356 0.9612,13.0269 0.8376,4.9909 2.2422,10.631 4.2137,16.9197 1.8729,6.2889 4.091,12.6025 6.6538,18.9414 2.5628,6.3388 5.4212,12.7023 8.5756,19.091 3.1541,6.289 6.1849,11.6045 9.093,15.9466 2.9078,4.3424 5.6432,7.7114 8.206,10.1072 0.7886,0.4992 1.5279,0.7486 2.2178,0.7486 0.7886,0 1.7499,-0.1995 2.8832,-0.5989 1.1335,-0.3991 2.3904,-1.1481 3.7703,-2.2459 l 0.8873,-0.4493 c 2.6614,-1.597 4.0906,-3.1944 4.2876,-4.7914 0.099,-0.4992 -0.197,-1.0981 -0.8869,-1.7969 -5.2243,-4.7914 -10.3008,-11.3797 -15.2294,-19.7648 -4.8297,-8.485 -8.9204,-17.3192 -12.2721,-26.5028 -3.5484,-9.1837 -6.0619,-18.0681 -7.5404,-26.6528 -1.1829,-6.0891 -1.6758,-11.4797 -1.4786,-16.1714 0.0987,-0.7985 0.2217,-1.8215 0.3697,-3.0693 0.1477,-1.2478 0.3696,-2.7204 0.6653,-4.4172 0.7886,-3.394 3.3514,-5.141 7.6884,-5.2407 -1.3799,-1.198 -3.0064,-1.7969 -4.8793,-1.7969" />
        <path
           id="path80"
           style="fill:#000000;fill-opacity:1;fill-rule:nonzero;stroke:none"
           d="m 1021.8484,795.1646 c 0.7886,0.0998 1.3552,-0.1746 1.7002,-0.8235 0.345,-0.6488 0.5176,-1.3974 0.5176,-2.2459 0,-0.8486 -0.1726,-1.6222 -0.5176,-2.321 -0.345,-0.6987 -0.7639,-1.0482 -1.2569,-1.0482 -2.2668,-0.2994 -4.386,-0.3991 -6.3575,-0.2994 -1.9715,0.0998 -4.288,0.599 -6.9494,1.4973 -0.4927,-0.9981 -1.1336,-2.3706 -1.9219,-4.1176 -0.7886,-1.747 -1.7499,-3.5436 -2.8834,-5.3904 -1.1333,-1.8467 -2.4642,-3.6436 -3.9921,-5.3903 -1.5278,-1.747 -3.2283,-3.1196 -5.1012,-4.1179 -1.5769,-0.8983 -3.5731,-1.173 -5.9879,-0.8235 -2.4151,0.3495 -4.83,1.0732 -7.2451,2.1711 -2.4148,1.0981 -4.5586,2.4956 -6.4315,4.1927 -1.8731,1.6968 -3.0557,3.5436 -3.5484,5.54 -0.7889,2.6952 -0.9366,5.6401 -0.4439,8.8345 0.4929,3.1941 1.2815,6.3136 2.3658,9.3583 1.0842,3.0444 2.3902,5.8396 3.9183,8.3852 1.5276,2.5452 2.9815,4.4668 4.3614,5.7645 0.4929,0.4992 1.0352,0.9485 1.6268,1.3476 0.5913,0.3994 1.1336,0.8487 1.6262,1.3479 -0.3943,2.0962 -0.6409,4.2173 -0.7392,6.3634 -0.0987,2.1462 0.3943,4.2177 1.4785,6.2142 0.8873,1.597 2.7354,2.6203 5.5446,3.0693 2.8091,0.4493 5.7665,0.2248 8.8713,-0.6738 3.1051,-0.8983 5.9389,-2.5455 8.5017,-4.9411 2.563,-2.3958 4.0906,-5.5902 4.5836,-9.583 0.4929,-3.6933 0.4683,-7.2372 -0.074,-10.6311 -0.542,-3.3939 -1.2073,-6.8876 -1.9959,-10.4814 0.887,-0.5989 2.3409,-1.0482 4.3614,-1.3476 2.0211,-0.2993 4.017,-0.2494 5.9885,0.1497 z M 984.293,777.9453 c 3.8444,2.2957 6.6781,4.9912 8.5017,8.0855 1.8235,3.0946 3.4254,6.3887 4.8053,9.8824 -3.4501,2.3959 -6.1112,5.4406 -7.9844,9.1338 -0.4926,-0.4989 -1.1336,-1.8467 -1.9219,-4.0427 -0.7886,-2.196 -1.5525,-4.7166 -2.2921,-7.5615 -0.7392,-2.8451 -1.2563,-5.6899 -1.5522,-8.5348 -0.2957,-2.8451 -0.1477,-5.1659 0.4436,-6.9627 z m 15.5248,26.5028 c 0.5916,1.3974 0.9856,3.0696 1.1829,5.0162 0.197,1.9465 0.2217,3.8931 0.074,5.8396 -0.148,1.9466 -0.3943,3.6935 -0.7396,5.2407 -0.3447,1.5471 -0.7146,2.6702 -1.1086,3.369 -1.5775,-1.9965 -2.2918,-4.7415 -2.1441,-8.2355 0.1479,-3.4937 1.0596,-7.2372 2.7354,-11.23" />
        <path
           id="path82"
           style="fill:#000000;fill-opacity:1;fill-rule:nonzero;stroke:none"
           d="m 1061.1763,801.9026 c 0.099,-0.8983 0.3203,-1.5223 0.6652,-1.8715 0.345,-0.3495 0.69,-0.5989 1.0353,-0.7489 0.3446,-0.1497 0.6406,-0.2993 0.8869,-0.449 0.2463,-0.1497 0.3203,-0.4742 0.2217,-0.9734 -0.197,-0.7985 -1.0593,-1.2478 -2.5875,-1.3476 -1.5279,-0.0998 -3.179,0.0499 -4.953,0.4493 -1.7744,0.3994 -3.4256,0.9731 -4.9532,1.722 -1.5279,0.7487 -2.3905,1.622 -2.5875,2.6204 -0.4929,1.6968 -0.6899,3.5186 -0.5916,5.4652 0.099,1.9465 0.099,3.918 0,5.9145 -5.2239,-5.7898 -9.7089,-12.0535 -13.4549,-18.7918 -3.7454,-6.7379 -6.7025,-14.5989 -8.871,-23.5831 -0.296,-1.0978 -1.1089,-1.6718 -2.4398,-1.7217 -1.3306,-0.0499 -2.7352,0.2245 -4.214,0.8234 -1.4785,0.599 -2.7598,1.3975 -3.8443,2.3959 -1.084,0.998 -1.5276,2.0463 -1.3306,3.1442 0.8872,5.3906 2.1441,11.0304 3.7703,16.92 1.6266,5.8895 3.5241,11.7042 5.6926,17.4441 2.1685,5.7396 4.485,11.2051 6.9494,16.3959 2.4642,5.1908 4.879,9.8325 7.2448,13.9252 0.4929,0.8983 1.1829,1.4473 2.0698,1.6469 0.887,0.1998 1.8236,0.1499 2.8092,-0.1497 2.2674,-0.7985 3.869,-1.7716 4.8056,-2.9197 0.9362,-1.148 1.0593,-2.4706 0.3693,-3.9679 -1.2813,-2.7953 -2.6612,-5.7149 -4.1397,-8.7596 -1.4786,-3.0444 -3.0064,-6.5135 -4.5836,-10.4063 1.4785,2.0962 2.8091,4.0428 3.992,5.8394 1.0845,1.4975 2.0455,2.9449 2.8834,4.3424 0.8379,1.3974 1.3552,2.2459 1.5525,2.5455 0.887,1.3975 1.6263,2.171 2.2176,2.3207 0.5916,0.15 1.5772,-0.0748 2.9574,-0.6738 2.7598,-1.0979 4.8296,-1.8964 6.2095,-2.3956 1.3805,-0.4991 2.3168,-1.148 2.8095,-1.9465 0.4929,-0.7985 0.6409,-1.9466 0.4436,-3.4438 -0.1973,-1.4976 -0.4436,-3.7933 -0.7393,-6.8879 -0.5916,-4.4921 -0.6899,-8.7843 -0.2956,-12.8772" />
        <path
           id="path84"
           style="fill:#000000;fill-opacity:1;fill-rule:nonzero;stroke:none"
           d="m 1110.8554,815.828 c 1.3799,0.1996 2.9568,-0.1499 4.7313,-1.0482 1.7742,-0.8983 3.0558,-1.6971 3.8441,-2.3959 -0.3943,-0.3991 -0.6653,-0.6239 -0.813,-0.6738 -0.148,-0.0498 -0.3206,-0.0498 -0.5176,0 -0.197,0.0499 -0.4683,0.125 -0.8133,0.2248 -0.3449,0.0998 -0.8132,0.0998 -1.4045,0 -1.4786,-0.2996 -3.6471,-1.2727 -6.5055,-2.9199 -2.8588,-1.647 -5.8159,-3.4937 -8.8716,-5.5401 -3.0558,-2.0463 -5.8896,-4.0427 -8.5017,-5.9893 -2.6121,-1.9465 -4.3124,-3.369 -5.101,-4.2676 0.493,-0.7985 0.9857,-1.5471 1.4786,-2.2458 0.4929,-0.6988 0.9859,-1.4474 1.4783,-2.2462 1.4788,-2.6952 2.1194,-5.3904 1.9221,-8.0856 -0.197,-2.6951 -1.0099,-5.3155 -2.4392,-7.861 -1.4295,-2.5455 -3.3267,-4.9161 -5.6925,-7.1124 -2.3658,-2.196 -4.8796,-4.0428 -7.5407,-5.54 -1.7742,-0.9984 -3.7704,-1.7221 -5.9882,-2.1711 -2.2179,-0.4493 -4.3864,-0.599 -6.5055,-0.4493 -2.1192,0.1497 -4.0907,0.574 -5.9142,1.2728 -1.8239,0.6987 -3.2531,1.7217 -4.288,3.0693 -1.0349,1.3479 -1.5772,2.9699 -1.6262,4.8665 -0.049,1.8967 0.6652,4.0927 2.1438,6.5883 2.2671,3.7934 5.1996,7.3369 8.7973,10.6311 3.5978,3.2941 7.2698,6.3887 11.0155,9.2834 -1.7745,2.5954 -3.5734,5.0661 -5.3969,7.4121 -1.8238,2.3456 -3.0802,4.966 -3.7707,7.861 -0.591,2.5951 -0.7143,5.2155 -0.3693,7.8608 0.3449,2.6455 1.0598,5.1658 2.1438,7.5617 1.0843,2.3958 2.4888,4.6168 4.214,6.6631 1.7249,2.0463 3.6717,3.8183 5.8402,5.3155 1.0843,0.6988 2.3655,1.0233 3.8444,0.9734 1.4785,-0.0499 2.9571,-0.3245 4.4353,-0.8237 1.4789,-0.4989 2.8341,-1.0979 4.0663,-1.7966 1.2323,-0.6987 2.1932,-1.2977 2.8832,-1.7969 2.5628,4.1925 4.8055,7.312 6.7274,9.3583 1.9222,2.0463 3.4747,3.6187 4.6576,4.7166 0.69,0.4992 1.6263,0.3744 2.8092,-0.3742 1.1829,-0.7486 2.2918,-1.747 3.3267,-2.9948 1.0349,-1.2478 1.8235,-2.5206 2.3658,-3.8183 0.542,-1.2977 0.4683,-2.196 -0.2217,-2.6951 -1.5775,-1.0979 -3.4503,-2.8449 -5.6188,-5.2407 -2.1685,-2.3956 -4.1893,-4.9411 -6.0622,-7.6363 -1.8726,-2.6952 -3.3267,-5.3155 -4.3614,-7.861 -1.0352,-2.5455 -1.2075,-4.6168 -0.5176,-6.2141 -0.4929,-0.1996 -1.1582,-0.1497 -1.9961,0.1499 -0.8377,0.2993 -1.6759,0.7486 -2.5135,1.3476 -0.8379,0.599 -1.6016,1.3725 -2.2918,2.3207 -0.69,0.9485 -1.1826,1.9715 -1.4786,3.0697 -0.197,0.7985 -0.197,1.7217 0,2.77 0.1973,1.0482 0.4436,2.0713 0.7393,3.0696 0.2957,0.9981 0.6406,1.9466 1.0349,2.8449 0.3946,0.8983 0.69,1.597 0.8873,2.0962 -1.8729,0.0998 -3.6224,-0.9233 -5.2489,-3.0694 -1.6263,-2.1464 -2.8338,-4.7168 -3.6224,-7.7113 -0.7889,-2.9948 -1.0843,-6.1141 -0.8873,-9.3583 0.1973,-3.2443 1.2322,-5.9647 3.1051,-8.1607 1.8728,1.1979 4.066,2.6952 6.5795,4.4921 2.5135,1.7968 5.0519,3.5685 7.6147,5.3155 2.5628,1.747 5.1009,3.2692 7.6144,4.5669 2.5138,1.2977 4.7067,2.0962 6.5798,2.3958 z m -47.7575,-48.9631 c 1.3799,0.0998 3.031,0.8734 4.9532,2.321 1.9222,1.4474 3.6964,3.1692 5.3226,5.1659 1.6266,1.9964 2.9081,4.0428 3.8444,6.139 0.9363,2.0962 1.1089,3.7933 0.5176,5.091 -3.0558,-2.895 -5.9389,-5.8147 -8.6499,-8.7596 -2.7105,-2.9447 -4.7067,-6.2637 -5.9879,-9.9573" />
      </g>
    </g>
  </g>
</svg>
