<?xml version="1.0" encoding="UTF-8" standalone="no"?>
<svg
   xmlns:dc="http://purl.org/dc/elements/1.1/"
   xmlns:cc="http://creativecommons.org/ns#"
   xmlns:rdf="http://www.w3.org/1999/02/22-rdf-syntax-ns#"
   xmlns:svg="http://www.w3.org/2000/svg"
   xmlns="http://www.w3.org/2000/svg"
   xmlns:xlink="http://www.w3.org/1999/xlink"
   xmlns:sodipodi="http://sodipodi.sourceforge.net/DTD/sodipodi-0.dtd"
   xmlns:inkscape="http://www.inkscape.org/namespaces/inkscape"
   inkscape:version="1.0 (4035a4fb49, 2020-05-01)"
   sodipodi:docname="wave.svg"
   id="svg4"
   version="1.1"
   viewBox="0 0 1440 320">
  <metadata
     id="metadata10">
    <rdf:RDF>
      <cc:Work
         rdf:about="">
        <dc:format>image/svg+xml</dc:format>
        <dc:type
           rdf:resource="http://purl.org/dc/dcmitype/StillImage" />
      </cc:Work>
    </rdf:RDF>
  </metadata>
  <defs
     id="defs8">
    <linearGradient
       id="linearGradient846"
       inkscape:collect="always">
      <stop
         id="stop842"
         offset="0"
         style="stop-color:#000000;stop-opacity:1;" />
      <stop
         id="stop844"
         offset="1"
         style="stop-color:#000000;stop-opacity:0;" />
    </linearGradient>
    <linearGradient
       gradientUnits="userSpaceOnUse"
       y2="186.50275"
       x2="722.96301"
       y1="314.43881"
       x1="722.98749"
       id="linearGradient848"
       xlink:href="#linearGradient846"
       inkscape:collect="always" />
  </defs>
  <sodipodi:namedview
     inkscape:current-layer="svg4"
     inkscape:window-maximized="1"
     inkscape:window-y="32"
     inkscape:window-x="-8"
     inkscape:cy="423.10353"
     inkscape:cx="640.04845"
     inkscape:zoom="0.67221078"
     showgrid="false"
     id="namedview6"
     inkscape:window-height="1017"
     inkscape:window-width="1920"
     inkscape:pageshadow="2"
     inkscape:pageopacity="0"
     guidetolerance="10"
     gridtolerance="10"
     objecttolerance="10"
     borderopacity="1"
     bordercolor="#666666"
     pagecolor="#ffffff"
     inkscape:document-rotation="0" />
  <path
     style="opacity:1;fill:url(#linearGradient848);fill-opacity:1;stroke-width:0.632093"
     id="path2"
     d="m 0,245.51886 h 11.4 c 11.5,0 34.6,0 57.6,12.78551 22.4,12.7855 45,38.35653 68,36.23895 23,-2.27744 46,-31.84393 69,-36.23895 22.6,-4.39502 45,17.18054 68,29.84617 23.1,12.90538 46,16.90086 69,17.02072 22.7,-0.11991 46,-4.11534 68,-19.17826 23.3,-14.90313 46,-40.47414 69,-55.37725 22.9,-15.06294 46,-19.05841 69,-14.94308 22.4,4.27516 45,17.06068 68,19.17828 23,2.27741 46,-6.51262 69,-12.78552 22.6,-6.51262 45,-10.50809 68,-10.62796 23.1,0.11992 46,4.11534 69,14.90312 22.7,10.78777 46,27.56876 68,38.35654 23.3,10.78778 46,14.78325 69,8.51036 22.9,-6.51264 46,-23.29361 69,-25.57103 22.4,-2.1176 45,10.66791 68,21.33582 23,10.5081 46,19.29813 69,12.7855 22.6,-6.27287 45,-27.84843 68,-42.63168 23.1,-14.78325 46,-23.57329 69,-21.29587 22.7,2.1176 46,14.90312 68,17.02072 23.3,2.27741 46,-6.51262 58,-10.62796 l 11,-4.27516 v 102.2841 h -11.4 c -11.5,0 -34.6,0 -57.6,0 -22.4,0 -45,0 -68,0 -23,0 -46,0 -69,0 -22.6,0 -45,0 -68,0 -23.1,0 -46,0 -69,0 -22.7,0 -46,0 -68,0 -23.3,0 -46,0 -69,0 -22.9,0 -46,0 -69,0 -22.4,0 -45,0 -68,0 -23,0 -46,0 -69,0 -22.6,0 -45,0 -68,0 -23.1,0 -46,0 -69,0 -22.7,0 -46,0 -68,0 -23.3,0 -46,0 -69,0 -22.9,0 -46,0 -69,0 -22.4,0 -45,0 -68,0 -23,0 -46,0 -69,0 -22.6,0 -45,0 -68,0 -23.1,0 -46,0 -69,0 -22.7,0 -46,0 -68,0 -23.3,0 -46,0 -58,0 H 0 Z"
     fill-opacity="1"
     fill="#ffffff" />
</svg>
